<svg width="210" height="179" viewBox="0 0 210 179" fill="none" xmlns="http://www.w3.org/2000/svg">
<path d="M131.247 1.45114C131.806 6.03129 130.486 12.1382 131.247 16.496C131.637 18.7268 135.735 25.6155 135.799 26.7716C135.986 30.2957 131.543 30.77 133.523 33.7456C132.855 35.7318 132.143 37.5291 133.144 39.619C137.16 40.097 137.418 41.4755 141.869 40.3527C139.608 45.322 149.963 50.3357 150.215 50.9953C150.372 51.4066 146.679 58.1397 150.972 58.703C152.989 65.4212 157.515 63.4054 159.318 57.9693C160.919 57.8951 167.581 60.9337 168.043 60.9041C169.212 60.8337 165.714 56.5574 169.561 57.2355C170.839 57.5728 170.929 60.867 171.458 61.2709C172.021 61.7045 184.138 62.6791 184.734 62.3715C185.353 62.0528 184.843 58.7585 186.253 58.703C187.108 58.6696 188.064 62.164 188.529 62.3715C189.327 62.731 204.377 60.8004 204.838 59.8035C205.205 59.0068 200.496 54.4711 203.32 53.5633C211.422 71.6282 211.467 88.8778 207.114 107.877C201.959 110.83 201.505 117.704 198.768 123.288C196.545 121.928 199.971 118.964 198.389 117.415C197.369 116.422 173.385 112.138 169.94 112.279C170.948 101.355 156.495 108.495 154.766 114.48C154.609 114.287 153.334 115.951 152.49 114.113C151.849 112.716 151.999 104.745 149.836 103.471C149.735 103.411 148.483 104.901 147.56 104.204C136.286 95.6776 139.293 101.659 129.354 99.0683C127.322 98.5384 127.648 94.9921 126.699 92.4612C123.962 85.1611 124.735 89.1743 121.008 88.0589C120.018 87.7624 121.75 86.043 118.353 86.5914C110.971 87.781 112.579 91.7274 103.18 87.3252C102.183 86.8583 102.471 86.6137 102.423 86.5914C103.885 80.1029 95.7225 78.239 92.5619 74.4815C92.3857 74.274 91.5796 70.2978 91.0435 69.3455C90.0012 67.4927 87.4442 67.5001 87.2492 67.1444C86.4356 65.6473 89.5775 64.2392 88.7676 62.7421C86.593 58.7289 81.5165 64.3874 80.8004 63.8427C79.9643 63.2053 80.6879 61.4711 80.4217 61.2747C74.7153 57.0206 73.3393 59.1773 72.8369 49.8984C74.3404 48.0938 74.7491 42.565 74.3554 40.3564C78.8245 36.888 76.0426 32.771 76.6312 27.8796C80.3655 26.2343 80.1368 22.0507 81.1828 18.7045C81.2541 18.4748 79.3832 17.6225 79.6643 16.5034C79.9305 15.4584 85.1458 12.0529 83.4586 9.52939C90.601 8.4177 92.5919 13.928 93.3193 2.18856C106.472 -0.609185 117.941 -0.579532 131.251 1.45485H131.247V1.45114ZM99.0032 13.928C97.3573 14.2392 95.4676 17.867 98.2458 18.3302C101.185 18.8231 104.106 12.9608 99.0032 13.928ZM103.555 24.1999C98.4895 25.2598 100.18 30.0696 100.9 33.3751C104.728 33.1305 106.074 33.1157 107.349 29.3396C110.472 34.1644 112.744 28.7542 111.522 26.0379C111.053 24.993 109.891 27.6499 108.868 27.1385C108.268 26.8383 109.224 23.0179 103.559 24.2037L103.555 24.1999ZM116.452 63.8353C107.896 64.1428 115.001 75.004 121.761 73.3772C127.76 71.932 122.166 63.6314 116.452 63.8353ZM142.247 80.7143C139.608 81.8223 137.103 92.5723 145.281 90.2563C151.737 88.4294 147.185 78.6429 142.247 80.7143ZM130.868 82.9155C129.946 83.0748 128.345 86.358 130.111 86.584C132.169 86.8471 134.033 82.3596 130.868 82.9155Z" fill="#D6C1E4"/>
<path d="M156.281 8.78828C176.228 17.1111 194.64 34.2162 203.316 53.5596C200.489 54.4675 205.202 59.0031 204.835 59.7998C204.374 60.7967 189.324 62.7273 188.525 62.3678C188.06 62.1603 187.104 58.6659 186.249 58.6993C184.84 58.7549 185.35 62.0529 184.731 62.3678C184.135 62.6754 172.017 61.7008 171.455 61.2673C170.93 60.8596 170.836 57.5654 169.558 57.2319C165.715 56.5537 169.213 60.83 168.039 60.9004C167.578 60.9301 160.916 57.8877 159.315 57.9656C163.42 45.5851 146.807 44.8328 150.969 58.6993C146.676 58.136 150.365 51.4029 150.211 50.9916C149.96 50.332 139.605 45.3183 141.865 40.3491C155.655 36.8621 138.292 19.542 133.52 33.7419C131.54 30.77 135.983 30.292 135.795 26.768C135.732 25.6118 131.634 18.7231 131.244 16.4923C130.483 12.1345 131.802 6.02389 131.244 1.44745C139.751 2.74812 148.389 5.49398 156.278 8.78828H156.281ZM167.282 25.6711C162.876 26.9903 171.417 35.4391 172.212 30.4402C172.403 29.2396 168.602 25.2746 167.282 25.6711Z" fill="#F4E3FF"/>
<path d="M93.3158 2.18481C92.5847 13.9242 90.5976 8.41398 83.4552 9.52567C78.9261 10.2297 75.578 14.4097 72.8335 9.52567C79.2785 6.42777 86.2297 3.693 93.3158 2.18481Z" fill="#F4E3FF"/>
<path d="M83.4515 9.52197C85.1386 12.0418 79.9234 15.4473 79.6572 16.496C79.3722 17.6188 81.2469 18.471 81.1756 18.6971C80.1296 22.0396 80.3583 26.2269 76.624 27.8722C68.1993 31.5852 74.3444 23.9591 71.6937 21.2651C64.9824 28.2872 63.9589 19.9607 63.3478 19.7976C63.0254 19.7124 59.816 23.3921 58.4175 18.3302C62.9616 15.0544 67.7494 11.964 72.8335 9.52197C75.5779 14.406 78.9223 10.226 83.4552 9.52197H83.4515Z" fill="#EED6FF"/>
<path d="M99.0038 13.9279C104.107 12.9607 101.186 18.823 98.2464 18.3302C95.4719 17.8633 97.3578 14.2392 99.0038 13.9279Z" fill="#B27A43"/>
<path d="M76.624 27.8722C76.0353 32.7637 78.8173 36.8806 74.3482 40.3491C72.0874 27.6759 58.1138 42.2056 61.4506 50.9916C62.5979 54.008 71.1575 51.8995 72.8297 49.891C73.3321 59.1699 74.7118 57.0132 80.4145 61.2673C80.6807 61.4637 79.9608 63.2016 80.7932 63.8353C81.5055 64.38 86.5858 58.7215 88.7604 62.7347C89.574 64.2318 86.4284 65.6436 87.242 67.137C87.4369 67.4964 89.9939 67.4853 91.0362 69.3381C91.5724 70.2905 92.3785 74.2703 92.5547 74.4741C95.7153 78.2316 103.878 80.0955 102.415 86.5841C100.091 85.502 95.7041 81.9298 93.6907 81.4481C87.7481 80.0214 81.4606 84.5275 83.4477 90.6232C84.0401 92.4353 95.5129 98.2568 96.7239 98.3309C98.1261 98.4161 102.449 96.9561 103.93 96.1298C103.836 101.918 103.833 105.123 104.687 110.808C96.9188 112.116 88.5167 119.038 94.8268 126.586C96.5477 128.647 100.241 129.165 102.033 130.622C105.883 133.749 105.074 138.741 112.655 137.962C114.226 137.799 120.862 133.638 121.379 133.56C124.862 133.023 133.478 136.862 135.795 139.434C135.919 139.571 137.992 142.202 138.071 142.368C138.978 144.288 138.288 147.775 139.589 149.709C133.741 150.069 135.469 159.744 136.174 159.985C137.899 160.567 148.494 159.714 150.969 159.251C150.11 160.96 153.361 167.27 153.244 167.693C152.959 168.738 139.657 173.577 137.692 173.933C129.703 175.374 114.657 172.543 109.243 178.335C75.0043 176.186 41.9656 153.511 29.5854 122.555C33.5897 121.728 52.5836 120.183 55.0019 121.821C55.658 122.265 55.1668 125.241 56.1416 126.59C58.0838 129.288 61.6756 131.033 62.9691 133.931C65.4211 139.415 64.0714 148.335 70.1752 153.382H72.451C72.9834 149.35 83.9238 142.743 84.2088 141.272C84.28 140.908 83.5864 134.275 83.4514 133.931C82.5554 131.648 79.7547 130.503 79.6572 130.262C75.1393 118.979 82.3229 122.054 83.4514 117.785C84.5875 113.487 79.7884 104.075 75.4842 102.741C70.9138 101.321 69.7665 104.26 69.4141 104.208C66.4859 103.793 64.2176 92.1684 63.7227 91.3643C63.3253 90.7158 54.297 82.2559 52.7223 80.7218C52.4373 80.4439 49.9966 80.9997 49.6891 80.7218C38.7 70.7981 50.6452 61.8046 49.3104 50.9953C49.1942 50.0578 45.9848 45.7074 46.2773 43.6545C46.5435 41.7906 52.3174 37.8144 50.0715 33.3788C49.0817 31.5779 41.2532 38.0701 40.9683 39.9859L39.4498 37.4179C45.4074 29.1877 50.0978 24.3334 58.4175 18.334C59.8197 23.3959 63.0253 19.7162 63.3478 19.8014C63.9589 19.9645 64.9824 28.291 71.6936 21.2688C74.3444 23.9591 68.2031 31.589 76.624 27.876V27.8722ZM60.3146 58.6956C58.5487 58.6178 59.4335 62.5124 61.0719 61.6304C62.1405 61.0598 61.0457 58.7289 60.3146 58.6956ZM64.8662 71.9098C64.4875 72.1285 65.7961 79.977 66.006 80.3512C67.4082 82.8896 69.5978 79.5582 70.179 82.1855C75.0343 79.9214 68.0644 70.0533 64.87 71.9098H64.8662ZM57.2777 75.5784C56.0404 76.2121 55.5942 78.5799 56.5203 79.247C57.9975 80.3105 58.5524 76.7086 57.2777 75.5784ZM120.247 150.439C118.072 150.613 108.812 153.452 107.728 155.208C104.744 160.055 109.854 159.729 111.522 161.082C112.002 161.471 107.807 164.51 117.971 163.65C126.879 162.898 129.826 159.329 128.971 150.806C128.529 150.202 121.548 150.336 120.247 150.439Z" fill="#5C4869"/>
<path d="M103.556 24.2C109.221 23.0142 108.268 26.8383 108.865 27.1348C109.892 27.6462 111.05 24.9893 111.519 26.0342C112.745 28.7505 110.469 34.1644 107.346 29.3359C106.071 33.112 104.729 33.1305 100.897 33.3714C100.181 30.0659 98.4866 25.2561 103.552 24.1962L103.556 24.2Z" fill="#D19D5F"/>
<path d="M167.282 25.6711C168.602 25.2746 172.403 29.2396 172.212 30.4402C171.417 35.4391 162.876 26.9903 167.282 25.6711Z" fill="#FBF6FF"/>
<path d="M141.869 40.3491C137.419 41.4719 137.16 40.0934 133.144 39.6153C132.143 37.5291 132.856 35.7319 133.523 33.7419C138.296 19.5383 155.659 36.8621 141.869 40.3491Z" fill="#897894"/>
<path d="M29.5893 122.551C18.4127 94.603 21.6446 62.0046 39.4499 37.4141L40.9684 39.9821C41.2534 38.07 49.0819 31.5741 50.0717 33.375C52.3175 37.8107 46.5436 41.7868 46.2774 43.6507C45.985 45.6999 49.1981 50.054 49.3106 50.9915C50.6453 61.7971 38.7001 70.7944 49.6893 80.718C49.9967 80.996 52.4412 80.4401 52.7224 80.718C54.2971 82.2522 63.3254 90.7121 63.7229 91.3606C64.214 92.1647 66.4823 103.789 69.4142 104.204C69.7629 104.252 70.914 101.318 75.4844 102.737C79.7885 104.071 84.5876 113.483 83.4516 117.782C82.3231 122.051 75.1394 118.975 79.6573 130.258C79.7548 130.499 82.5555 131.644 83.4516 133.927C83.5866 134.272 84.2801 140.905 84.2089 141.268C83.924 142.743 72.9835 149.346 72.4511 153.378H70.1754C64.0715 148.331 65.4175 139.411 62.9692 133.927C61.6757 131.033 58.0839 129.284 56.1418 126.586C55.1707 125.237 55.6581 122.258 55.002 121.817C52.5837 120.179 33.5898 121.724 29.5856 122.551H29.5893Z" fill="#493656"/>
<path d="M74.3483 40.3491C74.742 42.5576 74.337 48.0864 72.8298 49.891C71.1539 51.8995 62.598 54.008 61.4508 50.9916C58.1101 42.2056 72.0837 27.6758 74.3483 40.3491Z" fill="#F4E3FF"/>
<path d="M159.318 57.9618C157.515 63.398 152.989 65.4138 150.972 58.6955C146.807 44.8291 163.424 45.5813 159.318 57.9618Z" fill="#493656"/>
<path d="M60.3149 58.6955C61.046 58.7289 62.1408 61.0597 61.0723 61.6304C59.4338 62.5086 58.549 58.614 60.3149 58.6955Z" fill="#915A33"/>
<path d="M116.453 63.8352C122.17 63.6314 127.761 71.932 121.762 73.3772C114.998 75.004 107.893 64.1428 116.453 63.8352Z" fill="#8E72A1"/>
<path d="M64.8668 71.9098C68.0649 70.0533 75.0349 79.9213 70.1758 82.1855C69.5946 79.5582 67.4051 82.8895 66.0028 80.3512C65.7966 79.9769 64.4881 72.1284 64.863 71.9098H64.8668Z" fill="#612D15"/>
<path d="M57.2776 75.5784C58.5524 76.7086 57.9975 80.3141 56.5203 79.2469C55.5942 78.5799 56.0441 76.2083 57.2776 75.5784Z" fill="#532713"/>
<path d="M102.419 86.5877C102.468 86.61 102.179 86.8545 103.177 87.3214C105.629 91.1864 103.987 92.9318 103.934 96.1297C102.453 96.9561 98.1301 98.4161 96.7279 98.3309C95.5169 98.2568 84.0441 92.4352 83.4517 90.6232C81.4608 84.5274 87.7521 80.0251 93.6947 81.448C95.7081 81.9298 100.095 85.5057 102.419 86.584V86.5877Z" fill="#826992"/>
<path d="M142.248 80.7143C147.186 78.6428 151.738 88.4294 145.281 90.2562C137.104 92.5723 139.605 81.8223 142.248 80.7143Z" fill="#8E72A1"/>
<path d="M130.869 82.9155C134.034 82.3634 132.17 86.8509 130.112 86.5841C128.346 86.358 129.947 83.0749 130.869 82.9155Z" fill="#AF713D"/>
<path d="M126.696 92.4574C125.346 96.0963 123.348 90.1228 122.523 89.5225C121.181 88.5405 119.415 92.902 118.35 86.5877C121.747 86.0392 120.015 87.7587 121.005 88.0551C124.731 89.1705 123.955 85.1573 126.696 92.4574Z" fill="#90542D"/>
<path d="M118.35 86.5876C119.415 92.902 121.18 88.5442 122.523 89.5225C123.348 90.1228 125.346 96.1 126.696 92.4574C127.644 94.9883 127.318 98.5346 129.35 99.0645C139.29 101.655 136.283 95.6738 147.557 104.2C148.479 104.897 149.731 103.407 149.833 103.467C151.996 104.738 151.85 112.712 152.487 114.109C153.331 115.947 154.605 114.283 154.763 114.476C160.166 121.098 169.231 119.905 169.936 112.275C173.382 112.134 197.366 116.418 198.386 117.411C199.968 118.956 196.541 121.921 198.764 123.284C194.535 131.915 187.584 142.517 180.558 149.339C173.074 156.602 161.493 160.974 156.281 169.523C139.5 177.372 128.315 179.528 109.246 178.331C114.66 172.536 129.706 175.371 137.696 173.929C139.661 173.573 152.963 168.738 153.248 167.689C153.364 167.266 150.114 160.956 150.972 159.247C161.182 157.335 173.074 150.454 171.076 138.696C165.872 135.116 151.122 151.343 148.318 151.907C147.332 152.103 140.081 149.676 139.593 149.705C138.292 147.771 138.982 144.284 138.075 142.365C152.656 136.591 145.135 117.474 135.799 139.43C133.482 136.862 124.87 133.019 121.383 133.556C121.405 130.032 120.281 119.594 118.35 117.044C118.155 116.785 113.727 114.543 112.658 113.742C111.751 113.061 113.776 111.137 111.901 110.808C111.549 110.745 105.047 110.748 104.695 110.808C103.84 105.123 103.844 101.914 103.937 96.1296C103.99 92.9317 105.628 91.19 103.18 87.3214C112.58 91.7236 110.971 87.7772 118.354 86.5876H118.35ZM125.556 101.999C121.109 102.618 121.072 114.913 129.35 112.275C132.286 110.948 128.956 101.529 125.556 101.999Z" fill="#8E72A1"/>
<path d="M125.556 101.999C128.957 101.525 132.286 110.948 129.351 112.275C121.076 114.913 121.113 102.618 125.556 101.999Z" fill="#5C4869"/>
<path d="M169.937 112.275C169.232 119.909 160.166 121.098 154.763 114.476C156.492 108.492 170.945 101.351 169.937 112.275Z" fill="#BEADCA"/>
<path d="M207.111 107.873C202.657 127.309 187.896 149.346 171.455 161.452C167.26 164.539 161.081 167.281 156.282 169.527C161.493 160.978 173.075 156.605 180.558 149.342C187.588 142.52 194.536 131.919 198.765 123.288C201.502 117.704 201.956 110.83 207.111 107.876V107.873Z" fill="#5C4869"/>
<path d="M121.383 133.56C120.865 133.642 114.229 137.803 112.658 137.962C105.081 138.744 105.887 133.749 102.036 130.622C100.241 129.162 96.5513 128.646 94.8304 126.586C88.5241 119.038 96.9262 112.116 104.691 110.808C105.047 110.748 111.545 110.745 111.897 110.808C113.772 111.141 111.751 113.061 112.654 113.742C113.719 114.543 118.147 116.785 118.346 117.044C120.277 119.594 121.405 130.036 121.379 133.556H121.383V133.56Z" fill="#897894"/>
<path d="M138.075 142.368C137.996 142.202 135.923 139.571 135.799 139.434C145.135 117.478 152.66 136.595 138.075 142.368Z" fill="#493656"/>
<path d="M150.972 159.248C148.498 159.711 137.902 160.567 136.178 159.981C135.469 159.74 133.744 150.069 139.593 149.706C140.081 149.676 147.332 152.107 148.318 151.907C151.126 151.34 165.876 135.117 171.076 138.696C173.074 150.454 161.182 157.335 150.972 159.248Z" fill="#493656"/>
<path d="M1.1398 150.439L1.51848 151.54L0.378682 151.907L0 151.54L1.1398 150.439Z" fill="#3B4746"/>
<path d="M120.247 150.439C121.548 150.336 128.529 150.202 128.972 150.806C129.827 159.329 126.88 162.898 117.971 163.65C107.807 164.51 112.002 161.471 111.523 161.082C109.854 159.733 104.744 160.059 107.728 155.208C108.812 153.452 118.073 150.613 120.247 150.439Z" fill="#493656"/>
</svg>
