<svg width="1536" height="347" viewBox="0 0 1536 347" fill="none" xmlns="http://www.w3.org/2000/svg">
<g clip-path="url(#clip0_112_15043)">
<path d="M1535.99 227.28L0.359375 225.242L0.183918 344.684L1535.81 346.722L1535.99 227.28Z" fill="#282221"/>
<path d="M240.223 189.481C243.664 191.732 247.678 196.885 251.079 198.345C254.649 199.876 290.38 206.061 292.21 204.99C296.045 199.402 286.824 204.165 287.068 201.113C287.567 194.847 300.583 203.696 301.351 203.881C307.818 205.459 328.274 209.474 333.914 208.313C343.244 206.393 338.447 201.923 339.629 195.017C313.299 186.76 283.029 202.009 258.504 187.263C252.66 188.524 246.162 188.941 240.223 189.476V189.481Z" fill="#CAC4BB"/>
<path d="M228.797 176.185C231.006 180.48 231.734 187.448 235.08 189.481C237.155 190.742 235.704 186.969 237.938 188.372C238.486 188.718 239.688 189.13 240.222 189.481C246.161 188.945 252.659 188.523 258.503 187.267C264.118 186.059 273.174 181.523 277.358 180.622C282.006 179.617 295.41 182.456 297.355 176.19C282.933 176.19 266.691 168.81 254.509 169.545C248.021 169.938 235.933 175.171 228.802 176.19H228.797V176.185Z" fill="#8E8681"/>
<path d="M297.348 176.185C295.408 182.451 282.004 179.612 277.351 180.617C273.167 181.518 264.111 186.054 258.496 187.262C283.021 202.009 313.286 186.76 339.621 195.017C340.663 188.917 341.346 180.702 343.047 175.076C333.472 177.422 327.109 172.161 317.34 172.862C311.246 173.298 306.948 176.18 297.343 176.185H297.348Z" fill="#9F968F"/>
<path d="M1.87203 111.963C0.999347 111.949 0.28125 112.627 0.28125 113.475V196.287C0.28125 196.885 0.645277 197.434 1.20878 197.676C8.91335 200.928 11.8855 192.145 14.3888 186.604C14.7629 185.774 14.314 184.817 13.4214 184.546C2.83448 181.356 1.62269 179.451 15.7053 179.513C16.573 179.513 15.7303 181.835 17.4208 181.726C27.0453 181.129 31.658 174.28 44.8431 176.185C53.525 177.441 75.806 201.065 73.4073 207.758C72.9984 208.891 70.3803 207.995 69.9814 208.313C69.9066 208.374 69.8667 209.057 69.6922 209.825C69.4777 210.763 70.2108 211.654 71.1982 211.659C87.4052 211.778 111.666 211.071 125.968 213.849C132.451 215.11 132.979 215.371 135.353 217.636C136.505 218.741 138.415 217.613 137.936 216.115L137.821 215.755C137.582 214.996 137.986 214.181 138.754 213.896L144.469 211.763C144.698 211.678 144.938 211.645 145.182 211.669C155.355 212.678 218.702 216.442 221.37 213.849C222.706 212.55 221.405 209.569 221.943 208.863C223.165 207.256 226.117 206.796 226.511 205.54C226.696 204.962 223.609 196.543 223.085 193.908C222.442 190.689 217.854 184.134 222.193 180.195C222.686 179.745 222.811 179.029 222.512 178.437C221.938 177.318 221.42 176.161 220.801 175.076C217.979 170.123 218.228 160.415 212.897 156.95C211.411 155.988 209.721 157.908 210.888 159.221C212.459 160.993 213.97 162.463 214.608 164.24C215.246 166.018 212.429 167.032 211.671 165.245C210.19 161.747 207.995 158.586 204.849 156.144C203.841 155.362 204.215 153.77 205.477 153.5C210.244 152.476 214.638 154.945 218.517 158.458C223.105 162.615 225.564 169.582 228.277 175.138C228.581 175.763 229.279 176.119 229.977 175.986C237.203 174.621 248.363 169.905 254.507 169.535C266.69 168.8 282.932 176.19 297.353 176.18C306.958 176.18 311.257 173.294 317.35 172.858C326.795 172.185 333.059 177.076 342.115 175.285C342.688 175.171 343.152 174.768 343.317 174.228C345.92 165.8 347.6 163.577 354.083 157.713C354.312 157.505 354.492 157.235 354.552 156.931C355.539 152.182 361.718 152.732 357.334 147.38C342.03 128.691 210.04 140.45 175.666 129.653C175.507 129.605 174.434 128.463 173.362 127.52C172.654 126.899 171.577 127.05 171.018 127.799C170.216 128.871 169.483 127.439 169.383 127.434C165.952 127.425 162.491 127.591 159.1 127.434C158.088 127.387 156.352 129.61 155.804 126.396C155.684 125.709 155.116 125.178 154.398 125.136C128.471 123.533 65.3587 117.789 59.1252 115.248" fill="#605A5B"/>
<path d="M44.8359 176.185L69.9743 208.313C70.3782 207.995 72.9963 208.891 73.4002 207.758C75.7988 201.065 53.5179 177.436 44.8359 176.185Z" fill="#B0A9A6"/>
<path d="M220.797 175.076C228.616 173.113 216.344 163.24 218.513 158.457C213.846 154.229 208.435 151.518 202.516 154.58C208.724 158.182 211.926 164.188 213.372 170.644C217.795 163.297 211.701 161.6 208.23 155.689C218.503 155.699 217.331 168.985 220.797 175.076Z" fill="#868283"/>
<path d="M142.527 189.48C138.662 188.689 129.726 189.585 132.812 194.467C136.946 201.003 149.538 193.078 156.809 195.576C154.764 191.855 147.474 193.528 144.811 192.808C143.335 192.41 143.065 189.594 142.527 189.485V189.48Z" fill="#7C7475"/>
<path d="M72.832 185.049C77.1506 196.183 97.1276 193.14 106.538 202.222C98.8979 189.666 81.9977 194.861 72.832 185.049Z" fill="#817B7A"/>
<path d="M15.131 185.049C15.2257 184.869 18.5918 185.641 17.4149 181.726C15.7244 181.83 16.5672 179.513 15.6995 179.513C0.888762 179.451 2.99318 181.56 15.126 185.054L15.131 185.049Z" fill="#7A7273"/>
<path d="M115.108 186.158C109.493 185.395 116.459 197.396 120.823 198.344C123.131 198.259 115.916 186.267 115.108 186.158Z" fill="#958D8A"/>
<path d="M155.668 125.225C155.982 130.098 157.982 127.392 159.094 127.439C159.508 124.391 157.732 125.368 155.668 125.225Z" fill="#F4F4F0"/>
<path d="M169.38 127.439C169.51 127.439 170.647 129.743 171.664 126.33C169.774 125.676 169.32 124.088 169.38 127.439Z" fill="#DBDAE0"/>
<path d="M399.039 149.599C405.213 152.002 412.424 164.459 415.037 170.649C417.276 175.963 417.031 184.708 421.32 189.481L417.894 170.649C420.462 169.251 423.569 179.906 424.751 180.622C425.439 181.039 430.6 180.276 434.465 182.836C435.348 178.1 444.075 179.456 448.174 178.404C449.151 178.152 450.273 175.545 452.173 175.081C455.011 174.379 456.801 176.621 459.03 176.19C461.269 175.754 466.959 171.18 472.739 171.758C474.948 171.981 487.041 177.915 484.737 181.731C505.841 182.001 528.441 183.888 550.433 183.945C553.774 183.954 557.13 190.538 561.857 183.945C570.305 184.115 622.142 185.997 625.843 183.945C627.159 183.215 625.658 180.437 626.985 179.513L708.678 183.945C709.481 182.717 709.64 181.997 709.82 181.731L715.535 165.667C716.886 163.117 717.859 162.349 720.103 160.681C720.671 157.643 718.153 155.638 716.103 154.035C684.347 129.188 478.578 128.108 432.745 135.203C420.991 137.024 406.429 139.711 399.039 149.604V149.599Z" fill="#615B5B"/>
<path d="M786.375 166.217C788.499 167.549 800.418 184.129 802.373 187.267C820.35 183.039 838.921 186.248 857.217 187.267C864.363 187.665 870.168 184.807 879.498 187.267C884.694 188.637 886.47 194.6 892.638 191.699C894.329 190.021 895.625 187.898 897.206 186.158C903.026 179.778 905.449 171.55 914.346 168.431V167.321C903.634 156.799 877.369 154.851 862.358 154.026C839.215 152.76 804.751 151.807 786.375 166.212V166.217Z" fill="#615B5B"/>
<path d="M510.26 66.5069C507.305 80.7316 462.864 83.7463 450.222 84.2345C427.293 85.1209 401.509 83.2201 380.466 83.1253C288.695 82.7177 109.828 54.4958 106.579 47.1204C59.6579 44.5987 24.226 104.612 16.8641 87.6425C20.4976 110.011 43.4517 84.116 14.703 80.5942C11.2391 87.7895 12.7165 79.6557 6.81202 85.2346C4.56103 89.5338 2.33998 75.0484 -0.914219 78.1199C-4.59766 81.5943 4.46619 102.062 -0.914219 99.5162C-0.959139 103.356 -5.40123 107.451 -7.9966 108.617C-8.53564 112.513 55.2357 113.878 57.9808 115.253C79.9168 126.231 128.984 123.453 154.614 125.226C156.68 125.368 158.462 124.396 158.043 127.439C161.442 127.596 164.9 127.43 168.334 127.439C168.274 124.088 168.729 125.681 170.62 126.33C171.798 126.738 174.373 129.577 174.623 129.653C209.032 140.451 341.131 128.686 356.449 147.381C360.956 152.884 354.288 152.144 353.589 157.353C359.968 151.618 361.186 150.793 369.601 148.49C380.127 145.608 377.716 148.186 387.324 149.599C387.943 149.689 390.169 146.48 398.19 149.599C405.587 139.702 420.161 137.014 431.925 135.199C477.798 128.108 683.746 129.184 715.529 154.031C717.581 155.638 720.101 157.638 719.532 160.676C727.972 154.429 738.324 158.292 747.547 157.353C754.939 156.6 752.768 150.296 768.705 155.14C769.987 155.529 772.044 156.642 773.276 157.353C777.12 159.567 783.004 160.951 777.848 165.108C780.728 164.876 783.189 164.544 785.854 166.217C804.241 151.812 838.735 152.765 861.904 154.031C876.927 154.851 903.215 156.799 913.936 167.326L918.508 166.217L920.794 211.086C924.677 216.186 927.407 208.773 929.368 208.318C930.821 207.981 933.366 208.735 934.514 208.318C935.358 208.01 935.877 209.877 937.374 209.427C938.163 209.19 947.396 200.506 947.097 198.904C933.092 191.737 932.458 175.503 921.937 166.777C923.279 165.108 924.008 163.032 925.939 161.79C939.485 153.073 1004.19 155.192 1023.14 155.145C1066.29 155.036 1110 156.235 1152.93 159.577" fill="#464344"/>
<path d="M590.88 85.3392C588.12 86.1592 549.229 83.1778 547.996 81.4619Z" fill="#464344"/>
<path d="M930.521 98.6346C925.795 97.7577 926.284 104.503 929.378 105.28C934.295 106.522 933.087 99.1086 930.521 98.6346Z" fill="#BCA9A3"/>
<path d="M184.915 107.498C183.178 106.887 182.4 109.129 183.772 109.712C185.449 110.423 186.293 107.982 184.915 107.498Z" fill="#CFC6CC"/>
<path d="M661.783 105.28L660.066 105.835L661.783 107.499L662.352 106.944L661.783 105.28Z" fill="#999194"/>
<path d="M1198.69 166.213C1211.42 164.326 1274.11 179.684 1275.31 192.249L1270.16 196.127C1275.3 195.586 1277.41 196.127 1281.03 199.449C1294.5 187.405 1313.23 180.84 1330.2 181.722C1334.72 181.959 1339.41 180.48 1339.92 180.613C1344.77 181.916 1351.55 188.765 1357.64 190.586C1361.04 187.168 1373.55 184.428 1376.51 181.722C1379.38 179.11 1377.55 177.887 1378.23 176.181C1330.7 164.663 1291.46 134.009 1241.58 127.435C1219.65 124.543 1198.87 130.492 1179.82 128.544C1169.62 127.501 1156.86 119.803 1146.65 117.467C1086.98 103.787 1019.85 108.783 961.395 104.171C956.304 103.768 939.748 104.237 936.234 103.062C933.829 102.256 932.761 93.4538 925.943 97.5207C924.984 98.0943 925.883 101.128 923.657 101.953C917.468 104.247 872.513 101.251 859.616 99.739C836.627 97.042 842.776 100.943 763.837 99.5257C750.865 99.2935 744.376 99.175 740.568 98.9949C691.605 96.6533 673.677 88.1166 628.612 86.4434C622.603 86.2206 612.596 85.9883 600.023 86.4434" fill="#464344"/>
<path d="M434.461 182.83C436.725 184.333 438.899 189.234 440.176 191.694C441.188 191.633 441.323 192.685 442.46 192.803C521.779 200.904 612.648 188.116 693.255 193.913L698.396 197.235C701.413 192.505 705.682 188.533 708.679 183.94L626.985 179.508C625.659 180.432 627.16 183.21 625.843 183.94C622.143 185.992 570.306 184.11 561.858 183.94C557.131 190.533 553.775 183.949 550.433 183.94C528.437 183.883 505.837 181.991 484.738 181.726C477.946 181.641 461.833 186.205 454.458 185.049C451.68 184.613 447.207 181.977 448.175 178.403C444.07 179.456 435.344 178.1 434.466 182.835H434.461V182.83Z" fill="#B1A89F"/>
<path d="M1153.14 159.567C1110.25 156.225 1066.57 155.026 1023.46 155.135C1004.53 155.182 939.877 153.068 926.343 161.78C924.413 163.022 923.685 165.098 922.344 166.767C932.851 175.498 933.484 191.727 947.482 198.894C947.781 200.496 938.556 209.18 937.768 209.417C936.272 209.867 935.753 208.005 934.911 208.308C934.781 208.768 933.883 210.474 933.769 210.522C941.433 217.892 938.85 212.825 947.477 212.185C948.809 214.418 936.411 220.419 941.194 222.708C943.179 222.457 953.89 207.398 954.334 205.535C954.932 203.018 949.626 200.354 950.908 198.89C955.496 193.638 959.924 195.856 964.617 199.444L1063.45 200.553C1064.32 201.184 1067.16 204.89 1067.45 204.985C1072.34 206.564 1073.33 208.246 1073.73 208.308C1077.3 208.848 1080.47 205.033 1086.3 207.199C1090.13 208.626 1096.92 218.712 1098.3 222.708C1117.55 227.95 1119.12 208.019 1138.29 212.735C1150.09 215.641 1147.16 221.533 1152.57 223.812C1154.3 224.542 1167.25 224.997 1168.57 226.026C1170.66 227.671 1167.95 228.135 1167.99 228.24C1170.01 232.927 1169.29 241.786 1177.13 242.64C1196.2 222.054 1204.14 242.611 1216.55 251.503C1219.35 253.504 1228.13 254.272 1228.55 256.49C1228.62 256.86 1226.27 259.76 1226.27 263.69C1226.27 268.003 1224.33 277.744 1228.55 275.876C1230.13 269.643 1231.01 270.008 1228.55 263.135C1236.45 263.989 1230.68 261.879 1231.98 259.813C1234.01 256.58 1236.86 255.641 1237.69 254.272C1238.16 253.494 1237.24 249.897 1237.69 249.285C1242.3 243.114 1257.13 237.672 1265.11 233.776C1270.32 218.954 1268.75 210.493 1281.11 199.43C1277.5 196.102 1275.39 195.562 1270.26 196.107L1275.4 192.23C1274.21 179.664 1211.57 164.311 1198.85 166.193" fill="#615B5B"/>
<path d="M1256.55 217.176C1256.15 217.096 1249.71 220.433 1250.26 222.163C1252.45 228.936 1265.79 219.011 1256.55 217.176Z" fill="#3F3A3E"/>
<path d="M1040.6 165.108C1039.77 164.52 1036.92 165.193 1037.74 166.771C1038.64 168.492 1043.05 166.838 1040.6 165.108Z" fill="#E5E3DA"/>
<path d="M1225.69 200.558C1223 200.875 1224.98 205.525 1226.84 202.771C1227.59 201.662 1225.82 200.539 1225.69 200.558Z" fill="#CAC0C3"/>
<path d="M442.461 192.803C444.745 204.777 450.235 198.112 453.317 198.344C467.953 199.435 482.699 201.805 497.305 202.776L627.56 204.99C634.985 198.98 647.328 205.625 655.551 201.667C663.4 211.877 688.159 197.159 692.682 210.531C695.071 206.644 696.417 200.34 698.397 197.235L693.256 193.913C612.65 188.116 521.781 200.904 442.461 192.803Z" fill="#CDC5BC"/>
<path d="M857.216 187.262L855.5 192.803L805.797 195.017C807.014 197.193 810.33 206.905 810.938 207.203C811.457 207.459 817.511 204.279 822.363 204.99C825.973 205.516 829.554 209.991 830.93 210.531C835.927 207.91 830.551 201.444 838.356 199.454C839.542 199.15 855.685 196.121 856.637 196.131C857.201 196.131 864.262 200.359 866.92 200.563C874.121 201.117 879.402 201.046 885.775 198.349C890.378 196.401 890.368 193.95 892.632 191.704C886.463 194.605 884.688 188.642 879.491 187.272C870.161 184.812 864.357 187.67 857.211 187.272V187.262H857.216Z" fill="#A8A39E"/>
<path d="M802.371 187.262C803.782 189.528 804.49 192.676 805.797 195.017L855.5 192.804L857.216 187.262C838.919 186.243 820.348 183.034 802.371 187.262Z" fill="#837E7A"/>
<path d="M448.169 178.403C447.206 181.982 451.674 184.613 454.452 185.049C461.827 186.205 477.935 181.641 484.732 181.726C487.04 177.91 474.947 171.976 472.733 171.753C466.949 171.175 461.259 175.749 459.025 176.185C456.796 176.616 455.01 174.379 452.168 175.076C450.268 175.545 449.146 178.147 448.169 178.399V178.403Z" fill="#979089"/>
<path d="M1450.43 60.9371C1446.63 70.1659 1358.34 96.4159 1378.25 176.176C1383.49 197.178 1379.69 113.39 1406.8 105.891C1404.07 118.22 1401.08 111.641 1400.52 111.935C1393.54 119.94 1391.6 122.116 1390.85 131.871C1390.87 131.914 1400.55 130.681 1400.49 130.819L1396.53 137.412C1396.21 139.934 1395.52 139.422 1395.38 139.635C1394.14 148.594 1399.97 140.133 1401.09 142.384C1398.91 144.735 1394.62 155.239 1392.52 155.144C1391.77 155.106 1392.81 152.239 1389.1 152.931C1382.41 154.173 1386.34 164.373 1390.24 167.331C1390.33 167.397 1391.22 165.918 1391.96 166.222C1393.02 165.568 1394.66 164.861 1395.38 166.222C1402.59 179.773 1376.29 182.674 1379.93 192.822C1372.33 195.505 1377.45 186.703 1375.4 185.068C1364.14 188.372 1370.1 194.334 1357.68 190.595C1351.59 188.774 1344.81 181.925 1339.97 180.622C1331.52 182.357 1327.76 180.271 1318.83 187.822C1317.25 188.945 1317.69 184.954 1316.55 186.713C1315.59 188.177 1316.56 193.766 1315.4 195.576C1311.16 202.198 1294.97 213.029 1298.26 221.059C1301.54 229.05 1310.54 225.476 1305.12 221.059C1303.18 219.471 1302.31 222.362 1301.12 221.613C1298.61 220.025 1305.01 212.071 1306.83 210.54C1306.87 210.564 1310.83 209.905 1310.8 210.029C1307.92 214.641 1311.57 226.528 1310.83 228.813C1310.43 230.046 1293.92 241.777 1292.55 247.645C1291.56 251.968 1297.8 261.595 1296.56 267.046C1300.21 269.691 1301.63 257.661 1302.25 257.073C1313.55 261.287 1300 265.842 1297.12 270.909C1292.26 279.412 1292.2 291.817 1298.19 299.704C1289.44 298.462 1291.64 285.769 1290.26 279.773C1288.8 273.393 1283.73 257.206 1283.41 252.077C1282.98 245.199 1288.76 244.033 1286.83 236.568C1284.18 231.87 1280.02 246.555 1279.98 247.645C1279.68 255.357 1286.42 264.595 1284.56 273.099C1280.55 272.767 1277.51 261.742 1276.56 258.192C1244.18 246.792 1247.26 296.936 1229.71 310.256C1229.22 316.839 1225.67 321.556 1222.85 327.414C1222.77 329.599 1223.01 340.44 1222.87 341.26C1225.72 341.558 1224.38 345.118 1226.25 345.682C1228.67 339.402 1233.4 333.955 1235.42 327.41C1235.9 325.841 1234.95 317.953 1235.42 316.332C1236.13 313.891 1241.67 301.567 1243.99 301.378C1252.43 300.685 1242.38 308.075 1242.27 308.578C1241.92 310.199 1246 308.938 1246.84 310.791C1248.92 315.375 1238.76 327.201 1238.84 332.951C1238.97 339.463 1243.72 337.681 1242.31 344.582C1249.03 344.81 1274.89 347.573 1279.4 345.687C1293.22 328.22 1259.15 286.703 1286.84 281.996C1288.34 283.603 1280.18 322.513 1293.71 301.937L1295.95 303.027C1296.41 309.17 1290.29 309.715 1287.98 315.237C1292.24 320.963 1293.72 309.113 1296.54 311.35L1299.36 320.091C1300.35 315.659 1300.54 311.583 1301.1 307.051C1309.93 323.892 1334.27 316.015 1317.75 343.469C1317.77 343.469 1535.93 345.72 1535.91 345.654C1535.9 345.654 1535.96 279.18 1535.88 279.213C1529.57 279.716 1530.43 274.416 1535.88 273.672C1535.94 273.658 1535.93 10.006 1535.88 9.9965C1531.61 10.2288 1529.1 16.9074 1527.35 17.7511C1527.14 17.8506 1522.99 16.5377 1522.78 16.642C1513.95 21.4815 1510.9 26.3115 1501.07 25.5057C1498.01 27.051 1501.69 28.9138 1499.93 29.9376C1498.24 30.914 1496.65 28.7384 1496.5 28.8285C1494.86 29.8144 1494.26 32.8243 1491.93 34.3695C1489.96 35.673 1462.29 49.6986 1473.65 54.3106C1476.04 55.2823 1481.72 50.1536 1483.93 48.7696C1485.53 47.7694 1487.21 49.9688 1487.36 49.8787C1489.98 48.3098 1490.69 38.408 1491.93 38.8014C1495.59 39.9722 1494.07 45.7929 1494.78 47.6651C1495.73 50.4191 1497.23 57.7471 1502.31 58.2306C1501 58.7093 1495.96 59.3824 1497.31 61.2168C1502.09 66.5208 1495.26 66.1653 1494.78 67.0517C1490.8 74.4555 1507.39 72.6212 1507.33 73.7114C1495.98 80.5275 1506.49 85.8836 1502.78 92.5338C1500.97 95.7855 1497.44 95.1076 1497.09 95.2925C1498.1 98.6579 1498.39 98.6152 1497.08 101.933C1504.51 109.806 1494.89 114.764 1495.35 123.998C1490.55 116.243 1484.93 109.873 1478.79 103.061C1477.77 101.9 1477.64 100.213 1475.35 100.862C1473.84 104.061 1460.39 110.2 1457.68 114.096C1455.3 107.038 1464.71 106.157 1455.93 100.848C1448.77 96.4538 1456.21 99.8856 1457.07 94.7522C1457.17 94.098 1454.03 82.1817 1453.06 82.0158C1448.41 83.58 1451.98 90.1638 1451.36 91.4294C1450.99 92.1926 1447.1 92.9178 1446.79 93.643C1444.76 98.4304 1438.38 111.266 1446.74 110.266C1446.5 104.426 1451.94 106.939 1445.7 102.478C1459.53 95.9182 1448.33 114.707 1447.37 121.86C1442.27 120.358 1445.58 115.565 1444.51 113.579C1427.59 110.783 1435.24 35.2654 1442.22 26.0556C1446.14 21.5194 1478.67 4.37488 1482.2 13.8406C1476.01 17.2155 1468.69 16.0874 1473.62 24.3586C1475.01 22.7755 1484.24 13.4235 1485.06 13.3145C1485.37 13.2623 1488.38 16.1917 1490.78 15.5281C1495.43 14.2435 1499.91 8.16212 1501.06 7.77344C1510.85 4.41754 1525.7 3.81082 1535.91 -0.000129613C1535.88 -0.0333095 1535.99 2.24662 1535.91 2.24662" fill="#282221"/>
<path d="M389.422 254.096C390.654 255.812 429.511 258.794 432.268 257.973Z" fill="#282221"/>
<path d="M17.4169 181.726C18.5938 185.642 15.2227 184.874 15.133 185.049C12.3354 190.448 9.4929 202.042 0.277344 197.236V211.636C23.1068 211.868 46.0061 211.323 68.8305 211.636C69.8229 210.673 69.8329 208.422 69.9725 208.313L44.8342 176.185C31.6491 174.28 27.0364 181.129 17.4119 181.726H17.4169Z" fill="#4B4548"/>
<path d="M68.8345 211.636C46.01 211.323 23.1057 211.868 0.28125 211.636V220.5C8.42964 218.12 5.652 223.538 5.99609 223.822C8.71887 226.112 16.7675 228.093 20.2782 228.254C22.6519 228.363 26.771 226.041 27.135 226.041C40.5943 225.969 54.2581 225.429 67.6975 226.041C72.4947 216.324 82.6379 216.191 90.5469 220.5C95.01 222.931 95.5336 223.746 97.4037 228.254C111.875 232.207 107.347 226.064 111.686 222.713C115.197 220.002 122.707 225.405 125.968 213.849C110.953 210.934 84.9667 211.859 68.8394 211.636H68.8345Z" fill="#827E7D"/>
<path d="M0.28125 326.855V345.687C24.6417 345.64 49.0469 345.754 73.4073 345.687C72.9286 333.572 49.6005 337.577 40.8437 335.714C40.35 335.61 30.7903 331.529 33.4184 329.069C27.529 328.832 13.9251 331.832 17.4208 323.528C10.3196 326.097 11.6511 330.832 0.28125 326.851V326.855Z" fill="#2E2A2A"/>
<path d="M0.28125 250.413V271.464L28.8455 268.695C25.2401 261.097 22.3427 256.973 23.1307 248.2C19.5751 243.479 21.2357 240.336 18.5628 236.013C4.0712 232.041 7.55197 241.422 0.28125 250.413Z" fill="#2F2B2C"/>
<path d="M0.28125 220.499V223.822H5.99609C5.65699 223.533 8.43463 218.12 0.28125 220.499Z" fill="#59514F"/>
<path d="M841.218 316.887H838.934C829.055 330.164 831.379 320.494 822.936 321.319C819.615 321.641 816.853 323.879 814.938 324.642C815.287 327.026 813.093 327.87 811.512 329.074C813.137 329.296 815.197 328.187 816.08 330.183C817.012 332.283 810.185 332.61 816.08 339.047C820.862 334.946 819.351 337.141 822.936 336.833C823.799 336.757 835.428 336.729 836.077 336.833C841.926 337.753 840.684 344.701 850.359 340.156C848.294 340.459 847.047 340.184 845.791 338.492C847.92 335.814 848.838 336.667 851.506 337.937C854.897 339.554 852.797 338.985 853.79 340.151C854.034 340.44 852.159 344.403 856.647 345.692C857.595 345.967 870.186 345.934 872.071 345.692C869.812 344.431 876.539 340.435 878.928 339.047C882.339 337.061 882.713 342.066 884.643 338.492C885.146 337.563 885.879 328.789 886.927 326.86C880.938 330.747 872.824 326.381 865.788 326.86L868.072 319.105C864.985 327.244 846.738 326.154 844.649 321.874C844.015 320.575 851.256 315.062 848.648 313.564C844.494 315.233 847.112 316.887 841.223 316.887H841.218Z" fill="#4D4A4C"/>
<path d="M1128.01 330.178C1131.46 336.88 1138.42 336.572 1141.72 342.919L1118.29 331.287C1113.21 334.51 1114.39 339.284 1113.15 344.583C1128.49 344.844 1142.64 343.91 1156.57 343.474C1154.1 339.298 1157.6 336.956 1160 334.61C1158.07 333.311 1156.35 327.121 1156 326.855C1155.19 326.253 1148.01 328.462 1147.43 326.301C1147.34 325.945 1151.91 321.831 1148 320.205C1145.48 319.158 1132.95 330.846 1128.01 330.178Z" fill="#231D1D"/>
<path d="M899.487 326.855C893.288 331.183 889.468 335.738 889.204 343.473C889.319 343.497 888.825 345.597 889.777 345.687C894.156 346.109 928.919 346.379 930.908 345.687C933.312 344.848 930.245 343.54 930.335 343.473C922.346 336.027 910.522 329.088 899.487 326.855Z" fill="#1E1B1B"/>
<path d="M889.205 329.073C892.053 330.386 896.9 324.717 897.773 324.641C900.356 324.419 899.348 326.827 899.488 326.855C910.524 329.088 922.352 336.027 930.336 343.473C932.022 342.231 931.772 342.336 933.762 341.26C934.096 341.08 933.613 338.022 939.477 340.151C938.869 336.055 943.865 339.677 944.045 336.273C944.09 335.396 935.278 329.021 938.33 326.855C930.296 326.281 923.744 325.063 914.334 324.641C905.043 324.224 895.349 317.65 889.195 329.073H889.205Z" fill="#3F3B3E"/>
<path d="M1107.44 325.751C1104.76 326.978 1100.08 332.661 1099.44 335.724C1099.72 336.221 1100.08 342.056 1100.58 343.478C1104.23 348.74 1108.3 344.502 1113.15 344.587C1114.39 339.288 1113.21 334.515 1118.29 331.292L1141.71 342.924C1138.41 336.577 1131.45 336.885 1128 330.182C1127.78 329.756 1125.93 328.979 1126.86 326.86C1119.46 326.675 1116.76 321.466 1107.44 325.751Z" fill="#676261"/>
<path d="M1086.87 326.855C1080.86 329.742 1071.31 332.789 1069.73 339.041C1077.6 336.847 1071.76 341.08 1076.01 343.473C1077.62 340.189 1088.62 338.392 1089.15 337.932C1089.55 337.596 1089.36 331.021 1093.72 329.623C1092.07 326.973 1088.86 327.528 1086.87 326.855H1086.87Z" fill="#282324"/>
<path d="M1068.59 331.287C1068.56 332.894 1066.66 337.587 1066.87 340.151C1064.34 338.539 1058.08 340.265 1057.16 340.151C1055.28 341.843 1053.7 342.44 1051.45 343.474C1058.35 346.744 1056.12 341.236 1058.87 342.364C1060.68 343.104 1056.14 345 1065.73 345.687C1066.02 345.706 1067.13 340.478 1069.15 345.687C1072.93 343.298 1069.23 340.999 1069.73 339.042C1071.3 332.79 1080.85 329.742 1086.87 326.855C1086.76 326.817 1087.25 324.774 1086.29 324.642C1080.54 323.836 1075.26 330.955 1068.58 331.287H1068.59Z" fill="#7D7879"/>
<path d="M1090.3 339.041C1072.09 344.658 1098.88 350.673 1100.59 343.473C1100.08 342.046 1099.73 336.216 1099.44 335.719C1096.17 330.007 1092.44 333.334 1093.73 338.487C1093.8 338.795 1100.15 337.728 1095.44 342.364C1093.73 339.942 1092.14 341.516 1090.3 339.041Z" fill="#2D2828"/>
<path d="M889.205 329.073C887.838 331.609 887.04 341.013 884.637 344.028C888.257 347.147 888.048 343.237 889.205 343.474C889.469 335.738 893.289 331.183 899.487 326.855C899.348 326.827 900.36 324.414 897.772 324.642C896.899 324.717 892.052 330.386 889.205 329.073Z" fill="#666366"/>
<path d="M1042.31 339.042C1040.61 339.222 1037.2 343.179 1036.59 343.473C1038.54 348.545 1047.74 345.17 1051.45 343.473C1047.66 341.677 1048.34 339.918 1042.31 339.042Z" fill="#211D1F"/>
<path d="M933.766 341.26C936.992 344.27 940.503 350.019 944.048 344.028C941.944 342.132 942.453 341.231 939.48 340.151C933.616 338.022 934.1 341.08 933.766 341.26Z" fill="#2A2728"/>
<path d="M816.079 339.042C815.391 339.634 814.364 339.222 814.937 341.255C820.817 345.232 821.096 344.929 822.936 336.824C819.35 337.132 820.861 334.937 816.079 339.037V339.042Z" fill="#2C2A2C"/>
<path d="M872.066 345.692C876.749 345.085 884.678 345.597 878.923 339.046C876.534 340.44 869.807 344.431 872.066 345.692Z" fill="#747072"/>
<path d="M814.938 341.26C814.369 339.221 815.392 339.634 816.08 339.046C810.185 332.609 817.012 332.282 816.08 330.182C810.066 328.068 810.844 339.482 811.512 340.705C813.068 343.573 814.444 340.923 814.938 341.26Z" fill="#6A6568"/>
<path d="M805.798 329.073C805.598 330.116 806.017 331.368 805.798 332.396C807.827 331.552 809.787 330.386 811.513 329.073C813.093 327.87 815.293 327.031 814.939 324.642C811.373 326.068 809.124 326.609 805.798 329.073Z" fill="#8A8284"/>
<path d="M949.766 332.396C953.571 340.056 958.502 333.131 950.908 331.287L949.766 332.396Z" fill="#262425"/>
<path d="M851.501 337.937C851.332 338.425 850.484 340.136 850.359 340.151C850.968 339.866 852.778 340.321 853.785 340.151C852.793 338.985 854.887 339.549 851.501 337.937Z" fill="#A89F9C"/>
<path d="M949.764 332.396L950.906 331.287C947.959 328.813 948.762 330.382 949.764 332.396Z" fill="#847F86"/>
<path d="M17.4149 323.532C13.9142 331.832 27.5231 328.836 33.4125 329.073C39.3019 329.31 82.3976 328.756 84.2577 326.86C82.1682 315.873 75.3912 324.096 73.9749 323.537C71.2073 322.437 66.6943 299.202 48.8366 308.028C44.553 310.147 38.2347 320.992 37.4119 321.324C35.7463 321.992 31.4278 318.48 27.1292 319.11C26.6006 319.186 19.4146 322.817 17.4149 323.542V323.532Z" fill="#221E1F"/>
<path d="M67.6916 226.04C66.6295 228.192 64.929 235.615 67.1182 237.118C75.461 238.104 83.6693 240.474 90.5411 234.904C90.177 230.596 85.5643 224.874 90.5411 221.609V220.499C82.627 216.191 72.4839 216.324 67.6916 226.04Z" fill="#3A3738"/>
<path d="M220.796 175.076C221.614 176.512 222.263 178.076 223.08 179.508C225.399 183.556 231.373 189.007 234.505 192.803C235.084 192.467 238.908 197.269 237.931 188.372C235.697 186.969 237.148 190.742 235.074 189.481C231.727 187.447 230.999 180.479 228.79 176.185C225.858 170.488 223.39 162.88 218.508 158.458C216.338 163.24 228.611 173.114 220.791 175.076H220.796Z" fill="#A4A19E"/>
<path d="M223.081 193.913C231.249 188.514 224.188 198.785 234.506 192.803C231.374 189.007 225.4 183.556 223.081 179.508C217.276 183.328 222.403 190.5 223.081 193.908V193.913Z" fill="#767273"/>
<path d="M90.5411 234.904C91.0797 234.468 93.5781 234.695 93.9671 231.581C94.3411 228.628 92.8999 223.732 90.5411 221.608C85.5643 224.87 90.1771 230.595 90.5411 234.904Z" fill="#858182"/>
<path d="M90.5441 220.5V221.609C92.9028 223.727 94.344 228.629 93.97 231.582C96.3935 234.478 97.7898 232.506 98.5379 232.691C98.3134 231.454 97.8347 229.321 97.3959 228.259C95.5259 223.751 95.0022 222.936 90.5391 220.504H90.5441V220.5Z" fill="#B7B1AF"/>
<path d="M234.511 192.804C224.189 198.781 231.25 188.509 223.086 193.913C223.61 196.553 226.697 204.967 226.512 205.545C226.118 206.801 223.166 207.261 221.944 208.868C221.411 209.574 222.707 212.555 221.371 213.854C218.668 216.485 153.725 212.589 144.819 211.641L137.394 214.409L139.678 221.609C143.832 225.154 148.13 228.614 151.102 233.241C151.731 234.217 150.474 239.986 151.102 240.995C151.426 241.512 161.295 243.233 157.386 249.304C135 248.428 111.178 257.808 90.543 249.859C90.0792 245.773 108.221 246.47 109.966 243.214C116.479 231.051 101.549 235.17 99.1103 234.904C98.1578 234.8 98.6515 232.714 98.5368 232.691C97.7838 232.506 96.3925 234.478 93.9689 231.582C93.5749 234.696 91.0815 234.468 90.543 234.904C83.6712 240.474 75.463 238.109 67.1201 237.118C64.9259 235.615 66.6264 228.193 67.6936 226.041C54.2542 225.429 40.5904 225.969 27.1311 226.041C26.7721 226.041 22.648 228.368 20.2743 228.254C16.7636 228.093 8.71496 226.112 5.99218 223.822H0.277344V250.414C7.54806 241.417 4.0673 232.037 18.5589 236.014C27.0264 238.336 28.2432 244.048 33.4145 252.077C30.0235 256.41 25.4406 251.262 23.1317 248.2C22.3388 256.974 25.2411 261.098 28.8466 268.696L0.282335 271.464V326.855C11.6522 330.832 10.3207 326.102 17.4219 323.533C19.4166 322.812 26.6025 319.177 27.1361 319.101C31.4347 318.475 35.7533 321.987 37.4189 321.314C38.2417 320.982 44.5599 310.137 48.8436 308.019C66.7012 299.198 71.2092 322.428 73.9819 323.528C75.3981 324.092 82.1752 315.863 84.2646 326.851C82.4046 328.747 39.3288 329.301 33.4194 329.064C30.7964 331.524 40.3511 335.605 40.8448 335.71C49.6015 337.568 72.9297 333.562 73.4084 345.683C80.0957 345.664 86.9176 342.384 87.6905 342.36C89.9994 342.289 91.6002 345.683 92.2584 345.683C111.522 345.683 202.9 348.346 212.799 343.469C221.361 339.246 229.948 326.367 243.078 333.496C247.422 335.852 248.798 341.8 249.362 342.36C250.414 343.398 251.446 345.436 252.219 345.683C261.629 346.645 301.997 344.464 314.489 344.573C322.982 331.562 307.303 322.224 305.348 310.782C301.608 288.864 314.758 264.814 317.915 243.204L302.491 243.759L301.917 240.99L309.343 232.681L319.057 239.881C321.745 227.572 323.51 216.84 333.913 208.308C328.273 209.47 307.817 205.455 301.349 203.876C300.581 203.687 287.565 194.842 287.067 201.108C286.822 204.166 296.043 199.397 292.208 204.986C290.373 206.052 254.643 199.871 251.077 198.34C247.676 196.88 243.662 191.728 240.221 189.476C239.687 189.126 238.486 188.713 237.937 188.367C238.909 197.259 235.09 192.463 234.511 192.799V192.804Z" fill="url(#paint0_linear_112_15043)"/>
<path d="M228.796 267.032C234.805 266.439 242.191 263.809 248.793 263.709L245.367 255.954C254.308 261.372 268.396 267.928 276.789 264.818C273.403 262.055 259.335 248.84 261.933 258.723C247.86 255.362 258.697 254.836 258.507 249.859C258.403 247.176 248.893 232.596 245.941 229.918C245.736 227.77 245.646 226.851 248.225 227.15C233.708 220.405 228.831 232.553 225.375 245.432C223.081 253.968 231.499 257.722 216.234 262.05L228.801 267.037L228.796 267.032Z" fill="#343133"/>
<path d="M228.795 267.032C222.327 267.667 192.182 267.217 188.232 271.464C183.754 276.28 214.632 274.843 216.797 274.786C238.534 274.237 260.954 270.952 282.492 269.8C282.014 262.955 277.675 265.543 276.777 264.813C268.39 267.923 254.297 261.372 245.356 255.95L248.782 263.704C242.179 263.809 234.799 266.435 228.785 267.027H228.795V267.032Z" fill="#464345"/>
<path d="M165.383 274.786C159.613 273.976 150.647 287.982 147.101 290.296C146.199 290.883 134.28 291.04 135.103 296.391L183.664 294.727C181.839 291.713 166.744 274.976 165.383 274.786Z" fill="#2B2829"/>
<path d="M161.953 238.227V249.304L202.516 250.968C193.978 249.712 193.634 243.697 185.949 241.55C178.31 239.417 166.536 242.995 161.953 238.227Z" fill="#767473"/>
<path d="M247.645 283.65C240.474 282.024 230.52 288.712 234.504 294.173C235.053 294.922 252.497 296.277 253.359 295.837C255.14 294.922 253.359 284.949 247.645 283.65Z" fill="#292728"/>
<path d="M18.5636 236.009C21.2365 240.332 19.5759 243.474 23.1315 248.195C25.4404 251.257 30.0232 256.41 33.4142 252.073C28.2479 244.043 27.0311 238.331 18.5586 236.009H18.5636Z" fill="#908B8C"/>
<path d="M281.924 274.786C281.116 274.72 269.028 279.384 266.5 279.773L285.355 279.218C286.088 278.18 282.213 274.81 281.929 274.786H281.924Z" fill="#4F4C4D"/>
<path d="M129.389 285.864C127.395 289.196 119.376 289.76 132.247 290.296C134.351 287.309 129.559 286.068 129.389 285.864Z" fill="#39353B"/>
<path d="M129.391 285.864C131.59 282.2 125.94 279.901 125.965 284.2C126.085 284.712 128.857 285.219 129.391 285.864Z" fill="#39353B"/>
<path d="M248.219 227.149C248.563 227.187 251.415 232.956 253.934 231.027C253.664 228.628 249.8 227.884 248.219 227.149Z" fill="#343133"/>
<path d="M720.103 160.676C717.854 162.345 716.882 163.108 715.535 165.662L709.82 181.726C714.039 175.413 718.343 163.349 724.102 160.676C737.412 154.505 748.368 162.449 761.234 162.89C759.523 154.007 768.624 160.017 769.233 155.135C753.31 150.295 755.479 156.6 748.094 157.349C738.878 158.287 728.536 154.424 720.103 160.671V160.676Z" fill="#8F8D92"/>
<path d="M761.241 162.889C761.62 162.904 762.004 162.889 762.383 162.889C762.418 159.462 771.07 159.846 773.808 157.348C772.571 156.637 770.521 155.523 769.24 155.135C768.631 160.017 759.531 154.007 761.241 162.889Z" fill="#A7A3A9"/>
<path d="M1067.45 204.99L1062.3 212.745L1061.16 210.531C1053.15 213.778 1062.99 218.12 1061.74 223.272C1058.65 222.158 1060.77 218.191 1056.59 220.504C1049.79 229.453 1057.26 229.662 1058.31 231.027C1059.3 232.321 1056.8 234.354 1057.17 235.459C1058.1 238.236 1060.74 235.492 1061.17 236.013C1064.43 240.019 1054.55 245.195 1052.6 248.2C1051.48 249.916 1048.46 253.746 1048.03 254.845C1047.19 257.016 1046.87 264.61 1045.75 267.586L1053.75 266.477C1049.4 270.146 1047.24 274.924 1046.32 280.328L1043.46 269.805C1044.37 272.483 1040.9 281.105 1041.18 282.546C1041.6 284.698 1045.2 287.272 1047.46 288.087C1059.15 292.282 1081.88 292.13 1094.31 298.06C1095.07 298.425 1100.69 306.279 1103.45 306.924C1107.34 307.829 1111.31 305.705 1114.87 304.71C1116.73 309.118 1111.7 308.805 1111.45 311.355L1180.58 313.569C1193.72 301.003 1211.11 298.193 1221.14 290.305C1224.62 287.565 1223.49 285.442 1224 284.764C1197.33 279.963 1215.98 279.579 1216 276.455C1216.03 269.478 1206.9 275.967 1206.28 275.9C1205.48 275.815 1191.49 264.041 1198.28 277.01C1191.38 272.364 1183.88 279.057 1179.43 274.796C1169.05 279.109 1174.99 279.095 1168.57 284.769C1168.11 285.177 1161.03 289.248 1160.57 289.201C1157.49 288.893 1159.68 286.565 1158.29 285.878C1156.15 284.821 1155.9 289.362 1153.72 289.201C1152.17 289.087 1145.01 286.001 1143.44 285.878C1134.85 285.21 1111.55 287.589 1106.31 279.782C1105.75 278.948 1102.3 262.937 1101.74 260.396C1098.39 245.327 1102.06 240.033 1099.46 227.159C1099.27 226.221 1098.57 223.462 1098.31 222.727C1096.94 218.731 1090.15 208.645 1086.32 207.218C1080.49 205.047 1077.32 208.863 1073.75 208.327C1073.35 208.266 1072.35 206.583 1067.47 205.004L1067.45 204.99Z" fill="#262021"/>
<path d="M1101.73 260.386C1102.29 262.927 1105.74 278.943 1106.29 279.773C1111.54 287.575 1134.84 285.195 1143.43 285.868C1145 285.992 1152.15 289.077 1153.71 289.191C1155.89 289.352 1156.14 284.811 1158.28 285.868C1159.67 286.556 1157.47 288.883 1160.56 289.191C1161.02 289.238 1168.1 285.167 1168.56 284.759C1174.97 279.09 1169.03 279.1 1179.42 274.786C1172.58 268.245 1190.81 265.34 1190.84 272.018C1190.84 272.848 1181.06 274.108 1179.42 274.786C1183.87 279.048 1191.36 272.359 1198.27 277C1191.48 264.031 1205.47 275.805 1206.27 275.891C1206.88 275.957 1216.01 269.468 1215.98 276.445C1215.97 279.569 1197.31 279.953 1223.98 284.754C1224.65 283.863 1227.29 280.574 1227.41 280.323C1228.01 279.057 1228.19 277.327 1228.55 275.891C1224.33 277.758 1226.26 268.013 1226.27 263.704C1203.92 269.615 1180.91 263.605 1158.28 262.595L1158.86 266.472L1166.85 273.672C1179.66 267.709 1156.83 290.566 1163.43 278.104C1153.98 274.014 1138.86 280.432 1130.29 275.891C1126.79 274.033 1126.77 273.492 1130.29 271.459C1130.34 270.298 1130.18 269.165 1130.29 268.136C1130.31 267.989 1128.23 268.037 1129.15 265.368C1129.75 263.609 1142.06 253.39 1145.15 258.168C1147.92 256.334 1148.31 254.191 1149.71 251.522C1133.6 252.935 1117.94 259.58 1101.73 260.386Z" fill="#4D484A"/>
<path d="M1246.83 249.304C1244.6 256.035 1238.9 260.249 1236.55 267.586C1236.21 268.648 1238.02 290.514 1227.41 280.327C1227.29 280.579 1224.65 283.868 1223.98 284.759C1223.48 285.432 1224.61 287.561 1221.12 290.3C1211.11 298.188 1193.7 300.998 1180.56 313.564C1174.75 319.124 1166.71 328.04 1160 334.614C1157.6 336.961 1154.1 339.302 1156.57 343.478C1156.69 343.478 1156.22 345.73 1157.14 345.692C1160.01 345.587 1163.28 344.673 1165.71 344.583C1168.11 342.066 1173.53 336.136 1175.99 337.937C1176.91 328.756 1176.47 333.941 1180.56 329.073C1186.74 321.745 1206.21 301.093 1215.98 302.482C1217.08 299.121 1220.28 292.04 1223.98 296.386C1224.54 298.245 1223.23 298.97 1222.84 300.264C1228.3 300.183 1223.47 304.146 1226.84 305.805C1227.55 306.156 1230.5 299.169 1229.7 310.237C1246.77 298.202 1243.19 251.978 1271.97 257.059C1266.13 251.214 1262.71 252.395 1255.97 253.736C1254.6 254.011 1251.76 256.414 1250.83 255.95C1245.96 253.542 1258.49 253.219 1246.83 249.304Z" fill="#706967"/>
<path d="M1299.39 320.21C1298.92 322.765 1299.08 324.988 1298.25 327.964C1297.87 329.358 1297.57 331.041 1297.11 332.396C1296.32 334.714 1293.67 337.71 1292.54 340.151C1291.32 342.786 1288.19 342.63 1291.97 345.692C1296.92 342.99 1310.67 348.991 1317.67 343.478C1318.74 342.644 1323.33 331.766 1323.39 330.737C1324.21 316.74 1304.58 318.698 1301.11 306.919C1300.59 311.588 1300.26 315.517 1299.39 320.215V320.21Z" fill="#726F70"/>
<path d="M1282.25 337.937C1289.93 335.946 1288.04 316.678 1298.25 327.964C1299.08 324.987 1298.93 322.76 1299.39 320.21L1296.54 311.346C1293.71 309.137 1292.24 320.977 1287.97 315.223C1290.37 309.696 1296.34 309.199 1295.97 303.037L1293.68 301.927C1280.18 322.608 1288.35 283.366 1286.83 281.986C1262.04 285.461 1286.85 320.556 1282.26 337.932L1282.25 337.937Z" fill="#605B5B"/>
<path d="M1222.84 300.268C1220.67 307.364 1218.71 303.994 1218.27 304.7C1214.8 310.327 1207.69 324.646 1218.27 321.873C1219.87 326.765 1216.81 328.414 1215.99 330.182C1214.31 333.808 1211.32 336.785 1209.13 340.155C1207.96 341.966 1207.17 343.999 1205.71 345.696C1210.44 345.886 1215.24 345.564 1219.99 345.696C1220.88 345.455 1222.52 342.302 1222.85 341.264C1223.06 340.601 1222.74 329.595 1222.85 327.414C1225.67 321.556 1229.22 316.835 1229.7 310.241C1230.51 299.173 1227.56 306.16 1226.85 305.809C1223.48 304.155 1228.3 300.188 1222.85 300.268H1222.84Z" fill="#6E6765"/>
<path d="M1455.92 100.848C1464.67 106.214 1455.39 106.891 1457.64 114.144C1460.28 110.247 1473.86 104.057 1475.35 100.848C1476.23 98.9282 1475.59 94.1835 1475.35 91.9841C1474.25 82.2529 1474.3 83.182 1465.06 78.6885C1450.86 90.164 1464.95 90.5811 1455.92 100.848Z" fill="#323031"/>
<path d="M1465.06 78.6933C1474.3 83.182 1474.25 82.2577 1475.35 91.9889C1476.11 88.979 1485.54 82.1819 1485.63 81.4661C1486.17 77.0864 1482.79 79.4706 1482.2 78.1434C1481.77 77.167 1488.11 61.8237 1490.77 59.8613C1496.47 55.6664 1496.66 59.904 1497.05 59.8613C1498.13 59.7523 1500.93 58.2639 1502.77 58.1976C1497.13 58.2118 1495.81 50.4098 1494.77 47.6748C1492.32 51.9503 1487.14 55.8987 1484.49 59.3067C1482.26 62.1602 1484.63 63.568 1484.49 63.7386C1480.24 68.744 1469.8 74.8634 1465.06 78.6933Z" fill="#3C3A3C"/>
<path d="M1255.97 253.736C1262.71 252.394 1266.12 251.214 1271.97 257.059C1273.26 257.286 1274.39 258.874 1276.54 258.168C1275.56 254.461 1276.18 249.726 1275.39 245.981C1271.29 246.465 1274.17 242.09 1272.54 240.44C1268.12 235.985 1246.99 243.99 1266.25 244.318C1264.13 249.157 1250.53 246.185 1255.97 253.736Z" fill="#2D292B"/>
<path d="M1395.37 139.626C1395.5 139.398 1396.2 139.957 1396.51 137.412C1397.84 126.406 1387.84 137.431 1391.37 144.057C1394.99 144.612 1393.89 142.223 1395.37 139.626Z" fill="#9A989C"/>
<path d="M1180.56 329.073C1184.43 338.956 1179.39 338.71 1178.85 346.801C1193.4 348.564 1190.55 337.97 1194.85 335.724C1198.06 334.041 1200.14 343.279 1195.99 345.696C1199.22 345.786 1202.48 345.568 1205.7 345.696C1207.17 344 1207.96 341.966 1209.13 340.155C1204.69 338.634 1213.73 326.452 1215.98 330.182C1216.81 328.414 1219.86 326.765 1218.27 321.873C1207.69 324.646 1214.8 310.331 1218.27 304.7C1216.82 304.885 1216.14 302.506 1215.98 302.487C1206.22 301.098 1186.74 321.745 1180.56 329.078V329.073Z" fill="#5C5554"/>
<path d="M1165.71 344.582C1168.76 344.473 1176.67 348.493 1178.28 341.814C1178.7 340.089 1175.97 338.16 1175.99 337.937C1173.53 336.141 1168.11 342.07 1165.71 344.582Z" fill="#282322"/>
<path d="M1292.54 340.151C1293.66 337.709 1296.32 334.714 1297.1 332.396C1293.87 324.798 1282.43 339.15 1292.54 340.151Z" fill="#2A2526"/>
<path d="M1455.92 100.848C1464.95 90.5811 1450.86 90.164 1465.06 78.6885C1469.8 74.8586 1480.25 68.7393 1484.48 63.7338C1484.63 63.5632 1482.26 62.1554 1484.48 59.302C1487.14 55.8939 1492.31 51.9455 1494.77 47.67C1494.05 45.7977 1495.58 39.977 1491.91 38.8063C1490.68 38.4129 1489.96 48.3194 1487.34 49.8836C1487.19 49.9737 1485.52 47.7743 1483.92 48.7745C1481.71 50.1538 1476.02 55.2824 1473.63 54.3155C1462.28 49.7035 1489.94 35.6779 1491.91 34.3744C1494.24 32.8339 1494.84 29.8193 1496.48 28.8333C1496.64 28.7433 1498.23 30.9189 1499.91 29.9425C1501.67 28.9187 1497.99 27.0558 1501.05 25.5106C1501.46 25.3021 1507.09 25.8519 1510.19 24.4015C1514.09 22.5813 1518.04 18.9931 1522.76 16.6468C1522.97 16.5426 1527.12 17.8555 1527.33 17.756C1529.08 16.9123 1531.6 10.2005 1535.89 10.0014V7.78782C1534.33 7.17636 1531.03 10.044 1530.75 10.0014C1528.83 9.72647 1532.81 6.3279 1529.61 6.67866C1528.72 13.4995 1525.77 12.8264 1522.18 8.34239L1535.89 2.24678V0.0332031C1525.65 3.79675 1510.84 4.45087 1501.05 7.78782C1499.9 8.18123 1495.41 14.2579 1490.76 15.5424C1488.37 16.206 1485.35 13.2767 1485.05 13.3289C1484.25 13.4616 1474.9 22.7899 1473.62 24.4062C1468.7 16.1444 1475.89 17.1872 1482.19 13.8834C1480.54 10.2526 1478.21 10.8167 1474.77 11.1153C1468.9 11.6272 1445.72 21.1972 1442.2 26.0699C1433.9 37.5691 1433.35 89.7374 1436.49 103.621C1439 114.703 1443.35 111.465 1444.49 113.594C1445.57 115.627 1442.23 120.244 1447.34 121.903C1448.28 114.764 1459.55 95.8757 1445.63 102.516C1452.13 107.024 1446.33 104.332 1446.77 110.271C1438.33 111.328 1444.73 98.4495 1446.77 93.6526C1447.08 92.9227 1450.96 92.1974 1451.34 91.439C1451.96 90.1735 1448.39 83.5801 1453.05 82.0207C1453.97 82.1439 1457.16 94.1029 1457.05 94.7618C1456.19 99.8952 1448.74 96.4587 1455.91 100.857L1455.92 100.848Z" fill="#9E9EA0"/>
<path d="M1535.9 7.78762V2.24658L1522.2 8.3422C1525.78 12.8262 1528.73 13.4993 1529.62 6.67847C1532.82 6.32771 1528.84 9.72628 1530.76 10.0012C1531.04 10.0391 1534.34 7.17617 1535.9 7.78762Z" fill="#424042"/>
<path d="M1467.92 33.2701C1461.73 31.7485 1465.47 41.5176 1462.2 42.1338C1460.15 42.5178 1459.72 37.5313 1456.49 37.7019C1455.52 37.7541 1442.51 49.5472 1442.21 50.443C1440.55 55.3205 1441.65 66.886 1439.92 72.6024C1445.17 75.072 1442.59 74.5648 1445.06 78.6981C1449.54 65.4925 1458.33 61.0464 1469.63 53.7705L1467.91 33.2748H1467.92V33.2701Z" fill="#393638"/>
<path d="M1461.07 17.7607C1446.79 22.0172 1444.53 26.051 1448.5 37.7019C1460.7 35.256 1455.67 29.4732 1457.07 26.0699C1458.33 22.9795 1464.39 20.0691 1461.07 17.7607Z" fill="#2E2A2D"/>
<path d="M1520.48 11.1107C1517.78 11.2102 1518.42 14.9548 1519.34 15.5426C1520.49 16.2725 1524.03 10.9827 1520.48 11.1107Z" fill="#3D3C41"/>
<path d="M1265.11 233.795C1257.12 237.691 1242.3 243.137 1237.69 249.304C1244.25 252.072 1241.45 247.588 1242.83 247.091C1247.37 245.455 1246.56 249.214 1246.83 249.304C1258.49 253.224 1245.96 253.542 1250.83 255.95C1251.76 256.414 1254.6 254.006 1255.97 253.736C1250.53 246.185 1264.13 249.157 1266.26 244.318C1247 243.991 1268.12 235.985 1272.54 240.44C1274.17 242.085 1271.3 246.465 1275.4 245.981C1274.32 240.862 1275.4 235.672 1271.97 231.027C1268.79 229.169 1267.4 232.681 1265.11 233.795Z" fill="#454142"/>
<path d="M1281.11 199.449C1268.74 210.507 1270.32 218.973 1265.11 233.795C1267.4 232.676 1268.79 229.169 1271.97 231.027C1275.4 235.677 1274.32 240.862 1275.4 245.981C1276.18 249.726 1275.56 254.461 1276.54 258.168C1277.48 261.727 1280.53 272.696 1284.54 273.122C1286.43 264.614 1279.67 255.362 1279.97 247.64C1280.01 246.55 1284.17 231.866 1286.83 236.563C1288.75 244.028 1282.98 245.194 1283.4 252.072C1283.71 257.201 1288.8 273.388 1290.26 279.768C1291.63 285.783 1289.42 298.529 1298.26 299.709C1292.07 291.817 1292.32 279.398 1297.11 270.904C1299.99 265.818 1313.54 261.334 1302.25 257.054C1301.65 257.49 1300.23 269.733 1296.54 267.027C1297.82 261.585 1291.54 251.954 1292.54 247.64C1293.91 241.772 1310.42 230.041 1310.82 228.808C1311.57 226.514 1307.89 214.55 1310.82 209.976L1306.82 210.531C1305.01 212.052 1298.59 220.016 1301.11 221.608C1302.29 222.357 1303.16 219.466 1305.11 221.054C1310.52 225.471 1301.53 229.045 1298.25 221.054C1294.96 213.024 1311.15 202.198 1315.39 195.572C1316.55 193.761 1315.58 188.172 1316.53 186.708C1317.68 184.944 1317.24 188.94 1318.82 187.817C1322.4 185.267 1325.67 182.409 1330.24 181.721C1313.28 180.84 1294.58 187.405 1281.11 199.449Z" fill="#BAB8B8"/>
<path d="M1287.39 212.745C1287.02 212.773 1282.8 217.432 1283.39 218.84L1287.39 217.177C1291.06 220.741 1283.4 223.708 1281.11 227.699C1280.63 234.966 1299.89 230.107 1292.54 217.726C1292.19 217.148 1287.76 212.711 1287.39 212.74V212.745Z" fill="#3C393C"/>
<path d="M1307.96 188.371C1306.47 187.452 1293.95 197.297 1297.68 200.558C1298.58 198.761 1311.65 190.647 1307.96 188.371Z" fill="#A5A2A3"/>
<path d="M1281.68 204.99C1281.39 204.999 1278.84 209.64 1280.54 210.531C1283.31 211.976 1284.45 204.895 1281.68 204.99Z" fill="#545057"/>
<path d="M1237.69 249.304C1237.24 249.916 1238.16 253.514 1237.69 254.291C1236.86 255.661 1234.01 256.595 1231.97 259.832C1230.67 261.899 1236.44 264.008 1228.55 263.155C1231 270.028 1230.13 269.663 1228.55 275.896C1228.18 277.332 1228 279.062 1227.41 280.328C1238.02 290.514 1236.21 268.648 1236.55 267.587C1238.9 260.249 1244.6 256.04 1246.83 249.304C1246.56 249.214 1247.36 245.456 1242.83 247.091C1241.44 247.593 1244.25 252.077 1237.69 249.304Z" fill="#2E2929"/>
<path d="M1215.98 302.482C1216.14 302.506 1216.82 304.885 1218.27 304.696C1218.7 303.99 1220.66 307.36 1222.83 300.264C1223.23 298.97 1224.53 298.245 1223.98 296.387C1220.28 292.035 1217.07 299.117 1215.98 302.482H1215.98Z" fill="#514B4A"/>
<path d="M1478.78 103.066C1484.92 109.967 1490.59 116.106 1495.34 124.116C1494.77 114.826 1504.57 109.844 1497.06 101.957C1493.52 111.133 1485.15 107.844 1497.06 95.3114C1497.27 95.0839 1500.92 95.8613 1502.77 92.5433C1506.48 85.8883 1495.96 80.5321 1507.34 73.7113C1507.48 72.6638 1490.8 74.4697 1494.77 67.0659C1495.26 66.1653 1502.3 66.5492 1497.06 60.9702C1494.63 60.1313 1488.05 74.9958 1487.92 75.9249C1487.15 81.409 1492.45 87.1018 1492.49 89.2205C1492.53 91.7232 1485.97 100.383 1487.92 104.73C1476.21 103.066 1491.53 86.2249 1486.2 85.3432C1485.35 85.201 1481.29 90.8511 1481.06 91.4389C1479.44 95.6954 1481.97 101.203 1478.78 103.071V103.066Z" fill="#464345"/>
<path d="M1475.35 91.9888C1475.6 94.1881 1476.24 98.9328 1475.35 100.853C1477.69 100.251 1477.75 101.905 1478.78 103.066C1481.97 101.199 1479.44 95.6907 1481.06 91.4342C1481.29 90.8464 1485.35 85.2011 1486.2 85.3386C1491.53 86.2202 1476.2 103.066 1487.92 104.725C1485.97 100.374 1492.53 91.7186 1492.49 89.2159C1492.45 87.1018 1487.14 81.4091 1487.92 75.9202C1488.05 74.9912 1494.63 60.1266 1497.06 60.9656V59.8564C1496.66 59.8991 1496.47 55.6615 1490.78 59.8564C1488.11 61.8188 1481.77 77.1621 1482.21 78.1385C1482.8 79.4657 1486.18 77.0815 1485.63 81.4613C1485.54 82.1817 1476.11 88.9741 1475.35 91.984V91.9888Z" fill="#767574"/>
<path d="M1497.06 101.957C1498.35 98.6153 1498.16 98.7054 1497.06 95.3115C1485.15 107.844 1493.52 111.138 1497.06 101.957Z" fill="#626060"/>
<path d="M1496.49 89.7704C1494.05 88.7229 1493.16 93.278 1495.34 93.0932C1496.05 93.0316 1498.07 90.4483 1496.49 89.7704Z" fill="#696867"/>
<path d="M1209.13 340.151C1211.31 336.781 1214.3 333.809 1215.98 330.178C1213.73 326.448 1204.69 338.625 1209.13 340.151Z" fill="#443E3D"/>
<path d="M456.169 218.286C456.858 211.877 474.346 217.262 480.734 216.072C480.959 216.03 483.716 214.3 484.734 213.859C489.71 211.683 490.294 201.393 498.442 216.072C526.558 216.309 554.938 215.84 582.993 217.182C595.006 200.198 615.407 227.026 620.125 226.045C621.386 225.785 626.189 214.736 629.265 213.859C636.531 211.787 643.408 221.95 650.973 222.723L648.115 218.845C653.79 196.923 659.386 216.807 665.823 219.4C669.09 220.713 682.265 218.964 685.82 218.291C687.845 215.414 690.857 213.499 692.677 210.536C688.154 197.165 663.39 211.882 655.546 201.672C647.323 205.63 634.98 198.985 627.555 204.995L649.262 206.659C599.913 206.882 547.472 206.118 497.3 202.781C482.694 201.81 467.948 199.44 453.312 198.35C450.235 198.122 444.745 204.782 442.456 192.809C441.314 192.69 441.184 191.638 440.172 191.699C445.757 202.445 451.861 210.261 456.169 218.291V218.286Z" fill="#C4C2BD"/>
<path d="M370.476 148.489L366.477 154.03C374.844 154.007 370.95 145.541 381.332 149.598C383.292 150.366 385.571 154.988 385.9 155.139C388.354 156.249 383.417 151.66 392.183 151.817C392.393 151.817 393.221 149.646 396.183 150.708C399.339 151.84 399.005 154.13 400.182 155.139C405.892 160.045 408.286 167.335 415.038 170.649C412.425 164.458 405.219 152.002 399.04 149.598C391.031 146.48 388.807 149.688 388.184 149.598C378.579 148.186 380.988 145.612 370.476 148.489Z" fill="#726F70"/>
<path d="M370.476 148.489C362.073 150.793 360.852 151.618 354.479 157.353C347.442 163.686 345.866 165.767 343.054 175.081C341.353 180.707 340.67 188.926 339.628 195.022C338.446 201.923 343.243 206.398 333.913 208.317C323.516 216.849 321.745 227.585 319.058 239.89L309.343 232.69L301.918 241L302.491 243.768L317.916 243.213C314.759 264.823 301.609 288.878 305.349 310.791C307.299 322.233 322.982 331.571 314.49 344.582C396.901 345.303 479.452 346.346 561.859 345.692C563.784 342.364 559.689 337.416 557.859 332.396C551.087 313.806 544.445 277.052 524.154 268.141C518.962 265.861 496.906 257.817 491.016 255.954C486.05 254.38 473.672 254.926 471.593 253.741C468.646 252.058 465.808 240.706 464.168 237.122C462.452 233.387 459.904 225.329 458.453 222.722C458.318 222.442 455.526 224.248 456.169 218.29C451.86 210.261 445.757 202.449 440.171 191.699C438.895 189.244 436.725 184.338 434.457 182.835C430.592 180.276 425.435 181.034 424.742 180.622C423.56 179.906 420.454 169.255 417.885 170.649L421.311 189.481C417.023 184.707 417.267 175.957 415.028 170.649C408.281 167.335 405.882 160.045 400.172 155.139L392.174 151.817C383.407 151.66 388.344 156.249 385.89 155.139C385.561 154.988 383.277 150.366 381.322 149.598C370.94 145.541 374.84 154.007 366.467 154.03L370.466 148.489H370.476Z" fill="#1F1B1C"/>
<path d="M417.895 191.694C415.746 201.828 425.934 210.72 436.177 212.744C438.281 211.592 431 202.8 431.035 202.221C431.24 198.823 435.284 202.316 435.603 198.899C435.897 195.737 420.254 193.339 417.895 191.699V191.694Z" fill="#676668"/>
<path d="M405.324 193.912C403.952 193.798 397.395 192.907 399.04 196.68C399.165 196.96 403.883 196.225 405.324 197.235C408.844 199.704 407.817 203.823 413.323 202.776L416.18 198.899C415.995 197.59 406.72 194.026 405.324 193.912Z" fill="#69696C"/>
<path d="M393.898 158.457C399.02 165.975 400.646 173.085 403.039 181.721C403.368 173.255 402.885 162.623 393.898 158.457Z" fill="#5A5857"/>
<path d="M404.18 182.83C399.662 188.717 409.496 194.092 414.463 193.907L404.18 182.83Z" fill="#797A79"/>
<path d="M519.581 309.132C516.415 310.307 521.835 317.882 524.149 317.996L519.581 309.132Z" fill="#5A5456"/>
<path d="M392.184 151.812L400.182 155.135C399.005 154.125 399.34 151.84 396.183 150.703C393.226 149.641 392.393 151.817 392.184 151.812Z" fill="#47444E"/>
<path d="M438.459 231.581C435.307 232.823 443.62 237.862 444.742 235.458L438.459 231.581Z" fill="#5B5254"/>
<path d="M582.997 217.177C578.379 223.708 579.382 232.847 568.142 239.336C567.847 239.507 566.81 239.18 567 240.445C576.953 250.077 596.551 252.613 609.846 250.418C610.719 250.276 614.613 245.076 615.561 244.877C616.404 244.702 625.863 247.043 627.559 247.091L628.701 243.768C625.13 244.394 616.309 242.929 612.135 243.768L613.277 241.554L672.121 229.368C674.524 228.557 676.534 227.202 680.12 226.045C680.992 225.766 682.468 223.476 685.834 223.832C685.814 222.509 682.339 222.187 682.408 221.064C682.423 220.845 684.433 220.286 685.834 218.295C682.279 218.964 669.104 220.717 665.837 219.405C659.4 216.812 653.804 196.928 648.129 218.85L650.987 222.727C643.422 221.955 636.545 211.792 629.279 213.863C626.203 214.74 621.4 225.789 620.139 226.05C615.421 227.031 595.02 200.203 583.007 217.186L582.997 217.177Z" fill="#464449"/>
<path d="M857.213 255.954C841.639 256.438 794.589 250.883 784.66 253.741C771.321 257.58 803.615 260.064 805.799 260.386C816.745 262.022 827.736 264.074 839.505 264.818C843.614 265.079 850.78 265.87 852.072 265.927C861.566 266.33 872.098 264.325 881.778 265.927L879.494 258.173L895.491 259.282C903.385 254.968 869.475 251.048 865.785 252.636C865.147 252.911 867.54 256.414 864.643 257.068C863.252 257.381 860.065 255.874 857.218 255.959L857.213 255.954Z" fill="#57575A"/>
<path d="M805.798 329.073C809.124 326.608 811.373 326.068 814.939 324.641C816.854 323.878 819.616 321.641 822.937 321.319C829.316 316.323 855.087 295.182 838.935 316.887H841.219C846.111 309.563 852.758 307.445 853.786 298.055C842.655 301.543 810.62 304.245 806.94 314.119C804.122 321.679 809.034 321.385 809.224 322.982C809.483 325.148 805.204 323.162 804.656 324.091C803.339 326.291 805.848 328.827 805.798 329.078V329.073Z" fill="#464246"/>
<path d="M1032.03 249.304C1038.46 249.494 1033.08 249.821 1033.17 252.072C1033.32 256.092 1035.42 254.589 1035.45 255.395C1035.47 255.898 1034.46 262.244 1034.31 264.814C1033.89 271.829 1035.38 274.312 1032.03 280.877C1027.57 277.45 1022.97 279.612 1020.6 285.309C1026.67 286.158 1034.09 286.158 1038.88 283.645C1038.83 278.413 1042.26 268.416 1042.31 264.259C1042.38 258.467 1039.56 254.556 1038.88 249.859C1038.79 249.209 1041.09 236.16 1037.74 238.782L1036.03 245.982L1033.17 237.672L1032.03 249.304Z" fill="#3B3739"/>
<path d="M484.731 213.854C484.646 217.541 494.53 216.039 498.44 216.067C490.291 201.383 489.708 211.678 484.731 213.854Z" fill="#595558"/>
<path d="M456.17 218.286C456.943 219.722 457.696 221.357 458.454 222.717C460.499 226.96 465.745 231.918 464.169 237.118C465.81 240.696 468.647 252.053 471.594 253.736C473.674 254.921 486.051 254.381 491.018 255.95C496.902 257.812 518.959 265.856 524.155 268.136C544.446 277.052 551.088 313.801 557.86 332.391C564.817 328.68 568.657 332.979 576.142 329.068C590.499 321.565 574.422 313.749 570.427 303.032C554.454 260.14 600.487 258.561 621.841 287.523C636.956 308.018 628.209 299.643 616.699 316.882C621.517 316.384 624.399 310.369 628.124 308.018C628.229 307.952 629.226 309.715 630.408 309.127C631.376 308.644 630.398 305.648 632.692 304.696C634.951 303.762 653.203 307.426 656.688 309.127C661.85 311.649 674.227 327.158 676.112 327.959C678.934 329.159 698.183 332.093 703.534 333.5C706.172 334.192 711.064 338.781 713.817 339.041C718.844 339.52 730.872 332.827 736.666 332.396C746.236 331.68 756.09 338.037 758.374 337.937C758.788 337.918 763.744 333.619 765.231 333.505C776.431 332.647 781.562 335.757 790.937 336.828C794.867 337.278 799.001 336.937 802.936 337.937C803.514 336.169 805.454 333.979 805.793 332.396C806.012 331.363 805.593 330.111 805.793 329.073C805.843 328.822 803.334 326.291 804.651 324.087C805.205 323.162 809.478 325.144 809.219 322.978C809.029 321.38 804.117 321.674 806.935 314.114C810.615 304.24 842.65 301.539 853.781 298.05C868.492 293.438 880.151 283.778 890.912 279.218C899.759 275.469 910.056 278.199 918.334 282.541C925.525 286.314 932.018 297.088 940.615 298.05C946.719 298.733 963.634 295.562 969.753 293.618C974.52 292.106 976.49 286.911 981.178 285.864C988.842 284.148 1009.18 285.385 1016.6 282.541C1019.61 281.389 1035.07 269.33 1034.31 264.813C1034.46 262.244 1035.47 255.897 1035.45 255.395C1035.42 254.589 1033.31 256.092 1033.16 252.072C1033.08 249.821 1038.46 249.494 1032.02 249.304L976.037 244.872C942.85 245.431 909.269 242.289 876.062 239.331C873.194 243.156 893.161 243.128 886.344 247.086C881.672 249.802 855.152 246.313 857.207 255.95C860.054 255.859 863.241 257.372 864.632 257.059C867.534 256.405 865.141 252.902 865.774 252.627C869.469 251.039 903.374 254.964 895.48 259.272L879.483 258.163L881.767 265.918C872.087 264.316 861.555 266.321 852.06 265.918C850.764 265.861 843.598 265.069 839.494 264.809C827.725 264.064 816.734 262.012 805.788 260.377C746.45 259.685 687.242 248.882 627.546 247.081C625.85 247.029 616.39 244.687 615.547 244.867C614.6 245.067 610.705 250.262 609.833 250.408C596.538 252.608 576.94 250.067 566.986 240.436L564.702 239.881C565.081 236.866 567.161 236.392 568.128 239.326C579.368 232.837 578.361 223.699 582.984 217.167C554.928 215.826 526.548 216.295 498.433 216.058C494.518 216.025 484.635 217.527 484.724 213.844C483.707 214.29 480.949 216.02 480.725 216.058C474.337 217.248 456.848 211.868 456.16 218.271L456.17 218.286Z" fill="url(#paint1_linear_112_15043)"/>
<path d="M464.168 237.118C465.744 231.918 460.498 226.96 458.453 222.718C459.904 225.325 462.452 233.383 464.168 237.118Z" fill="#C5C3BC"/>
<path d="M458.453 222.718C457.695 221.357 456.942 219.727 456.169 218.286C455.531 224.244 458.318 222.438 458.453 222.718Z" fill="#C5C3BC"/>
<path d="M965.191 267.031C949.862 262.879 951.373 284.991 953.766 285.863L977.189 284.2C978.251 282.18 967.844 267.747 965.191 267.027V267.031Z" fill="#333032"/>
<path d="M669.258 286.973C655.759 283.816 658.367 302.615 678.399 296.946C676.658 295.277 670.759 287.328 669.258 286.973Z" fill="#353233"/>
<path d="M804.086 285.864C794.511 283.233 792.197 295.775 808.654 294.727C809.801 292.618 805.417 286.229 804.086 285.864Z" fill="#353437"/>
<path d="M560.716 232.686C558.043 230.5 551.45 238.416 556.148 240.44C561.304 242.663 562.865 234.444 560.716 232.686Z" fill="#5A5658"/>
<path d="M539.004 233.795C538.486 233.819 534.516 234.857 535.578 236.008L546.434 235.454C544.709 235.62 539.388 233.776 539.009 233.79H539.004V233.795Z" fill="#9E9F9D"/>
<path d="M678.4 315.778C677.597 315.275 672.974 316.593 673.259 318.546C676.196 320.831 681.547 317.759 678.4 315.778Z" fill="#383C3E"/>
<path d="M953.766 258.168C951.971 258.168 951.163 260.088 951.482 261.491C958.025 263.074 957.426 258.163 953.766 258.168Z" fill="#403D3E"/>
<path d="M566.999 240.441C566.809 239.175 567.847 239.502 568.141 239.331C567.173 236.397 565.089 236.871 564.715 239.886L566.999 240.441Z" fill="#A5A5A3"/>
<path d="M576.142 329.073C573.903 334.904 577.623 332.458 579.568 333.505L614.416 317.996C618.44 327.798 621.906 319.887 622.414 320.21C627.057 323.172 606.093 336.382 601.275 331.842C617.996 327.315 613.149 320.134 599.56 327.964C598.373 328.647 599.899 332.519 597.276 333.505C595.042 334.344 591.865 330.903 582.994 335.719C582.779 335.833 583.707 339.16 581.278 340.151C580.68 340.392 573.13 337.785 572.138 345.692L675.538 343.478C674.047 342.033 671.863 341.938 673.823 339.046L680.106 344.587C682.271 344.696 683.103 346.028 685.248 345.697C683.607 336.406 689.043 345.351 690.963 345.697C697.41 346.867 702.856 343.436 703.529 343.483C705.399 343.601 719.776 349.365 722.384 343.483C721.132 342.895 717.587 341.985 718.385 340.16C727.117 346.559 736.547 335.989 742.95 339.051C743.224 339.184 745.229 343.445 746.949 343.483C750.43 343.564 752.38 340.577 756.09 341.269C756.738 341.388 763.356 345.469 766.373 345.701C776.152 346.46 786.265 345.142 796.079 345.701L790.937 336.837C781.562 335.766 776.431 332.657 765.231 333.515C763.745 333.629 758.788 337.928 758.374 337.947C756.085 338.046 746.236 331.69 736.666 332.406C730.867 332.837 718.844 339.53 713.817 339.051C711.064 338.79 706.172 334.207 703.534 333.51C698.183 332.107 678.934 329.173 676.112 327.969C674.227 327.163 661.85 311.654 656.688 309.137C653.208 307.435 634.951 303.771 632.692 304.705C630.398 305.658 631.371 308.654 630.408 309.137C629.226 309.725 628.229 307.961 628.124 308.028C624.399 310.379 621.517 316.394 616.699 316.892C628.209 299.652 636.956 308.028 621.841 287.532C600.482 258.571 554.455 260.149 570.427 303.041C574.417 313.759 590.499 321.575 576.142 329.078V329.073Z" fill="#201C1D"/>
<path d="M579.566 333.505C579.746 333.6 578.958 336.856 582.992 335.719C591.864 330.903 595.045 334.34 597.274 333.505C599.897 332.519 598.372 328.652 599.558 327.964C613.147 320.134 617.994 327.315 601.274 331.842C606.086 336.383 627.055 323.172 622.413 320.21C621.904 319.887 618.438 327.798 614.414 317.996L579.566 333.505Z" fill="#7B7277"/>
<path d="M722.388 343.473C732.183 348.076 733.848 341.814 742.954 339.042C736.551 335.975 727.116 346.55 718.389 340.151C717.591 341.976 721.137 342.886 722.388 343.473Z" fill="#7D7A80"/>
<path d="M675.545 343.473C678.642 346.474 678.562 344.502 680.113 344.583L673.829 339.042C671.87 341.933 674.049 342.028 675.545 343.473Z" fill="#625C62"/>
<path d="M641.839 314.669C635.975 314.223 632.369 319.357 628.699 322.978L641.839 314.669Z" fill="#6D676B"/>
<path d="M1054.88 330.178C1052.41 331.438 1050.2 332.922 1048.02 334.61C1049.3 340.046 1051.3 339.421 1057.16 340.151C1058.08 340.264 1064.34 338.539 1066.88 340.151C1066.66 337.586 1068.56 332.894 1068.59 331.287C1068.62 330.002 1068.58 328.703 1068.59 327.409C1066.43 324.044 1057.86 328.666 1054.89 330.178H1054.88Z" fill="#262325"/>
<path d="M940.625 298.05C942.066 305.971 957.864 311.72 965.19 314.669C980.25 320.731 996.113 323.547 1012.04 326.855C1013.82 328.652 1009 331.96 1008.04 332.396C1013.61 332.865 1006.83 335.468 1008.61 337.937C1009.93 339.762 1015.42 339.814 1017.18 340.151C1016.06 329.941 1035.43 329.126 1034.32 340.151C1038.25 339.336 1037.44 338.335 1042.32 339.042C1048.34 339.919 1047.67 341.677 1051.46 343.474C1053.72 342.44 1055.29 341.843 1057.17 340.151C1051.31 339.426 1049.31 340.047 1048.03 334.61C1047.06 330.505 1051.69 327.936 1054.89 330.178C1057.86 328.661 1066.44 324.044 1068.6 327.41C1068.58 328.704 1068.62 330.007 1068.6 331.287C1075.27 330.955 1080.55 323.836 1086.3 324.642C1087.26 324.774 1086.76 326.822 1086.88 326.855C1088.87 327.528 1092.08 326.974 1093.73 329.623C1089.37 331.022 1089.55 337.596 1089.17 337.932C1090.48 337.743 1090.17 338.852 1090.31 339.042C1092.14 341.516 1093.74 339.942 1095.45 342.364C1100.16 337.729 1093.81 338.795 1093.73 338.487C1092.44 333.33 1096.17 330.007 1099.45 335.719C1100.09 332.657 1104.77 326.978 1107.45 325.746L1106.31 323.532C1105.24 323.907 1101.34 325.684 1101.74 322.978C1105.25 321.693 1111.42 313.631 1114.3 320.21C1123.03 319.067 1120.29 323.248 1121.73 323.532C1124.19 324.016 1131.08 322.328 1134.3 323.532C1134.66 326.192 1128.41 326.893 1126.87 326.855C1125.94 328.974 1127.79 329.751 1128.01 330.178C1132.95 330.851 1145.48 319.162 1148.01 320.205C1151.92 321.826 1147.34 325.94 1147.44 326.301C1148.02 328.462 1155.2 326.253 1156 326.855C1156.36 327.121 1158.07 333.311 1160 334.61C1166.72 328.035 1174.76 319.119 1180.57 313.559L1111.44 311.346C1111.69 308.791 1116.72 309.109 1114.87 304.7C1111.3 305.701 1107.33 307.824 1103.44 306.914C1100.69 306.269 1095.07 298.415 1094.3 298.05C1081.87 292.121 1059.14 292.272 1047.46 288.077C1045.19 287.267 1041.59 284.688 1041.17 282.536C1041.26 284.281 1039.41 283.371 1038.89 283.645C1034.1 286.158 1026.67 286.158 1020.61 285.309C1022.97 279.612 1027.58 277.45 1032.03 280.877C1035.38 274.312 1033.89 271.824 1034.32 264.813C1035.08 269.331 1019.62 281.384 1016.61 282.541C1009.19 285.385 988.857 284.148 981.187 285.864C976.5 286.911 974.53 292.106 969.763 293.618C963.644 295.557 946.729 298.733 940.625 298.05Z" fill="#4E494B"/>
<path d="M1017.18 340.151C1020.57 340.81 1024.2 341.227 1027.46 342.364C1030.28 341.43 1030.29 340.98 1034.31 340.151C1035.43 329.125 1016.06 329.941 1017.18 340.151Z" fill="#211E21"/>
<path d="M976.039 301.373C972.833 300.311 967.028 297.989 970.898 304.696C974.593 306.838 986.207 304.298 986.896 304.696C988.072 305.378 985.23 307.113 986.322 307.464C991.049 308.985 997.178 308.839 1002.32 306.355C988.511 295.112 1004.71 295.04 984.612 294.723C984.103 294.713 982.991 292.405 981.754 292.509C980.742 295.102 982.018 297.207 980.612 299.709C976.463 307.108 976.408 301.492 976.044 301.373H976.039Z" fill="#262426"/>
<path d="M1065.73 301.373C1054.79 299.97 1059.25 307.042 1056.59 306.914C1054.82 306.829 1057.32 298.534 1048.59 303.592C1046.06 305.056 1043.65 311.209 1044.59 311.901C1048.24 314.574 1067.34 309.284 1072.58 309.133C1075.5 306.265 1067.35 301.587 1065.73 301.378H1065.73V301.373Z" fill="#231F21"/>
<path d="M1114.29 320.21C1107.93 321.044 1109.65 322.357 1106.29 323.533L1107.43 325.746C1116.76 321.457 1119.46 326.671 1126.86 326.855C1128.39 326.893 1134.64 326.187 1134.28 323.533C1131.07 322.329 1124.18 324.016 1121.72 323.533C1120.28 323.248 1123.01 319.068 1114.29 320.21Z" fill="#262425"/>
<path d="M976.04 301.373C976.409 301.496 976.464 307.108 980.608 299.709C982.014 297.201 980.743 295.102 981.75 292.509C977.616 292.845 976.185 294.993 972.609 296.386L979.466 297.495L976.04 301.373Z" fill="#5F5A5C"/>
<path d="M1106.29 323.533C1109.65 322.357 1107.94 321.044 1114.29 320.21C1111.41 313.635 1105.24 321.693 1101.73 322.978C1101.34 325.685 1105.23 323.907 1106.29 323.533Z" fill="#655D60"/>
<path d="M1048.02 334.61C1050.2 332.923 1052.4 331.439 1054.88 330.178C1051.68 327.936 1047.06 330.505 1048.02 334.61Z" fill="#817D7D"/>
<path d="M1031.46 308.024C1029.62 307.564 1028.53 308.351 1027.46 309.687L1032.6 310.242C1033.73 309.687 1031.75 308.099 1031.46 308.028V308.024Z" fill="#292428"/>
<path d="M1098.87 324.642C1098.31 324.613 1098.1 325.613 1098.3 326.305C1098.94 330.429 1100.33 324.722 1098.87 324.642Z" fill="#60585B"/>
<path d="M853.785 298.05C852.758 307.445 846.111 309.559 841.219 316.882C847.108 316.882 844.49 315.228 848.644 313.559C851.252 315.057 844.011 320.57 844.645 321.868C846.734 326.144 864.981 327.239 868.068 319.1L865.784 326.855C872.82 326.376 880.933 330.742 886.922 326.855C891.71 318.043 907.508 318.285 914.345 324.641C923.75 325.068 930.307 326.281 938.341 326.855C953.137 327.912 983.417 331.637 995.47 329.068C999.295 328.253 1000.36 329.884 996.612 330.178C998.522 334.05 1004.56 333.96 1008.04 332.391C1009 331.955 1013.82 328.647 1012.04 326.85C996.113 323.542 980.25 320.726 965.19 314.664C957.864 311.715 942.066 305.966 940.625 298.045C932.028 297.078 925.535 286.304 918.344 282.536C910.066 278.194 899.768 275.464 890.922 279.213C880.16 283.773 868.501 293.438 853.79 298.045H853.785V298.05Z" fill="#1F1C1D"/>
<path d="M995.466 329.073C995.267 330.353 996.573 330.111 996.608 330.182C1000.35 329.888 999.291 328.258 995.466 329.073Z" fill="#9C9593"/>
<path d="M858.925 316.887C854.482 315.967 852.966 318.138 851.5 321.873C852.472 323.584 860.162 319.01 858.925 316.887Z" fill="#514D50"/>
<path d="M822.938 321.319C831.38 320.494 829.051 330.164 838.935 316.887C855.087 295.183 829.316 316.323 822.938 321.319Z" fill="#312F30"/>
<path d="M850.358 340.151C850.483 340.132 851.33 338.426 851.5 337.937C848.837 336.667 847.915 335.809 845.785 338.492C847.047 340.184 848.294 340.459 850.353 340.156L850.358 340.151Z" fill="#201C1E"/>
<path d="M125.964 213.854C122.703 225.41 115.192 220.006 111.682 222.718C107.343 226.069 111.871 232.207 97.3996 228.259C97.8384 229.321 98.3222 231.454 98.5416 232.691C98.6563 232.719 98.1626 234.805 99.1151 234.904C101.554 235.17 116.484 231.051 109.971 243.213C108.226 246.475 90.084 245.773 90.5478 249.859C111.178 257.808 135 248.427 157.391 249.304C161.295 243.232 151.426 241.512 151.107 240.995C150.479 239.986 151.736 234.217 151.107 233.241C148.135 228.614 143.836 225.154 139.683 221.609C132.432 215.418 135.085 215.622 125.974 213.854H125.964Z" fill="#363234"/>
<path d="M145.959 236.009C140.599 233.473 145.914 242.73 148.243 241.55C148.792 241.27 147.401 236.691 145.959 236.009Z" fill="#746B6A"/>
<path d="M1177.14 242.659C1176.33 243.531 1173.9 249.551 1172.57 250.968C1162.15 261.988 1162.51 249.778 1160.57 249.304C1160.03 249.171 1153.49 251.191 1149.71 251.518C1148.31 254.186 1147.92 256.334 1145.15 258.163C1140.02 261.552 1133.9 260.851 1130.29 268.136C1130.18 269.169 1130.34 270.298 1130.29 271.459C1130.23 272.924 1130.33 274.421 1130.29 275.891C1138.86 280.436 1153.98 274.014 1163.43 278.104C1163.8 277.403 1166.6 273.791 1166.85 273.672L1158.85 266.472L1158.28 262.595C1180.91 263.605 1203.92 269.61 1226.26 263.704C1226.26 259.77 1228.62 256.874 1228.55 256.504C1228.13 254.286 1219.34 253.518 1216.55 251.518C1204.14 242.626 1196.19 222.068 1177.13 242.654L1177.14 242.659Z" fill="#272224"/>
<path d="M1099.44 227.15C1102.04 240.024 1098.38 245.318 1101.73 260.387C1117.94 259.581 1133.6 252.935 1149.71 251.523C1153.49 251.191 1160.03 249.176 1160.57 249.309C1162.51 249.778 1162.15 261.989 1172.57 250.973C1173.9 249.556 1176.33 243.536 1177.14 242.664C1169.3 241.811 1170.01 232.947 1167.99 228.264C1154.31 229.292 1140.44 227.368 1126.86 227.154C1117.95 227.012 1108.51 229.103 1099.44 227.154V227.15Z" fill="#848487"/>
<path d="M1098.3 222.718C1098.55 223.452 1099.25 226.211 1099.44 227.15C1108.51 229.098 1117.94 227.007 1126.86 227.15C1130.38 219.438 1137.98 221.969 1138.29 212.75C1119.12 208.033 1117.55 227.96 1098.3 222.722V222.718Z" fill="#68656A"/>
<path d="M1138.29 212.745C1137.98 221.969 1130.38 219.433 1126.86 227.145C1140.44 227.358 1154.31 229.282 1167.99 228.254C1167.95 228.15 1170.66 227.68 1168.57 226.04C1167.25 225.012 1154.3 224.552 1152.57 223.827C1147.16 221.547 1150.09 215.65 1138.29 212.749V212.745Z" fill="#474448"/>
<path d="M628.695 243.768C639.726 241.839 660.675 233.207 672.115 229.368L613.271 241.554L612.129 243.768C616.303 242.929 625.124 244.393 628.695 243.768Z" fill="#77757A"/>
<path d="M709.823 181.727C709.643 181.992 709.483 182.712 708.681 183.94C705.684 188.533 701.41 192.505 698.398 197.236C696.418 200.34 695.077 206.645 692.683 210.531C690.863 213.494 687.851 215.409 685.826 218.286C684.425 220.282 682.41 220.841 682.4 221.054C682.331 222.182 685.806 222.5 685.826 223.822C686.235 223.865 692.139 226.534 693.252 227.145L680.111 226.036C676.526 227.192 674.521 228.553 672.113 229.359C660.678 233.203 639.724 241.834 628.693 243.759L627.551 247.081C687.247 248.883 746.455 259.685 805.793 260.377C803.609 260.05 771.32 257.571 784.654 253.732C794.588 250.873 841.633 256.429 857.207 255.945C855.152 246.309 881.672 249.797 886.344 247.081C893.161 243.124 873.194 243.152 876.062 239.327C909.269 242.285 942.85 245.422 976.037 244.868C987.446 244.678 1004.82 245.005 1015.46 243.759C1019.6 243.275 1033.35 241.72 1030.88 236.559C1029.44 233.411 1012.67 230.923 1009.74 229.359C1005.98 227.344 1002.41 220.945 997.176 218.281C990.992 215.134 979.268 214.594 973.179 210.527C970.162 208.507 966.447 200.852 964.612 199.449C959.919 195.861 955.491 193.643 950.903 198.895C949.622 200.359 954.928 203.028 954.329 205.54C953.885 207.403 943.174 222.462 941.189 222.713C936.407 220.419 948.804 214.418 947.472 212.19C938.845 212.83 941.428 217.897 933.764 210.527C925.575 213.963 925.974 223.675 921.766 226.036C916.175 229.174 918.33 223.998 917.198 223.822C911.657 222.95 907.738 228.287 901.774 228.809C905.484 240.398 896.278 225.216 893.206 222.713C892.982 222.533 888.833 222.761 887.491 221.604C877.149 212.664 877.149 199.179 862.927 214.959C862.064 215.916 859.436 225.941 855.501 224.931C850.32 212.565 844.072 216.39 835.504 212.745C833.824 212.029 831.919 210.915 830.936 210.531C829.56 209.996 825.975 205.521 822.369 204.99C817.517 204.279 811.463 207.46 810.944 207.204C810.336 206.905 807.015 197.193 805.803 195.017C804.497 192.676 803.783 189.529 802.377 187.263C800.422 184.125 788.504 167.544 786.38 166.213C783.717 164.539 781.258 164.871 778.381 165.103C770.911 165.705 766.343 168.44 759.526 170.644C759.082 165.696 776.99 163.359 777.234 162.335C773.818 158.297 766.193 162.928 762.378 162.89C761.999 162.89 761.615 162.904 761.236 162.89C748.365 162.449 737.409 154.5 724.105 160.676C718.345 163.35 714.041 175.413 709.823 181.727Z" fill="#3D3A3E"/>
<path d="M762.384 162.89C766.194 162.928 773.824 158.297 777.24 162.335C776.995 163.359 759.088 165.696 759.532 170.644C766.348 168.445 770.911 165.71 778.387 165.103C783.538 160.946 777.653 159.562 773.819 157.349C771.081 159.842 762.429 159.458 762.394 162.89H762.384Z" fill="#79757A"/>
<path d="M835.504 212.745C844.071 216.39 850.32 212.565 855.501 224.931C859.435 225.941 862.063 215.916 862.926 214.958C860.198 207.626 860.173 216.432 856.643 216.067C855.965 215.996 852.808 211.749 852.075 211.636C847.956 210.991 839.553 211.223 835.509 212.745H835.504Z" fill="#A7A4A7"/>
<path d="M735.53 220.5C725.95 220.485 716.854 225.263 707.539 227.7L718.395 227.145L735.535 220.5H735.53Z" fill="#696569"/>
<path d="M746.96 162.89C741.365 162.738 733.157 170.104 728.105 172.308C736.787 174.408 741.829 162.027 751.528 166.212C752.67 164.705 747.245 162.894 746.96 162.89Z" fill="#746E75"/>
<path d="M680.117 226.041L693.257 227.15C692.145 226.538 686.236 223.87 685.832 223.827C682.466 223.471 680.99 225.761 680.117 226.041Z" fill="#6A656A"/>
<path d="M847.502 248.195L842.36 248.75C841.268 249.869 847.641 250.646 847.502 248.195Z" fill="#7F7B80"/>
<path d="M897.202 186.158C895.616 187.893 894.32 190.017 892.634 191.699C890.375 193.946 890.38 196.397 885.777 198.345C885.787 204.63 895.756 204.805 898.344 201.113C898.843 200.402 903.7 181.779 897.202 186.158Z" fill="#6A666D"/>
<path d="M914.342 168.431C905.446 171.549 903.022 179.778 897.203 186.158C903.706 181.783 898.844 200.402 898.345 201.113C895.752 204.805 885.788 204.63 885.778 198.345C879.405 201.046 874.129 201.113 866.923 200.558C864.265 200.354 857.204 196.131 856.64 196.126C855.688 196.117 839.546 199.146 838.359 199.449C830.555 201.44 835.925 207.905 830.934 210.526C831.916 210.91 833.826 212.029 835.501 212.74C839.546 211.218 847.948 210.991 852.068 211.631C852.806 211.745 855.957 215.992 856.635 216.063C860.166 216.428 860.191 207.621 862.919 214.954C877.141 199.174 877.141 212.659 887.484 221.599C888.82 222.756 892.974 222.523 893.198 222.708C896.275 225.211 905.481 240.388 901.766 228.804C907.73 228.282 911.65 222.95 917.19 223.817C918.322 223.997 916.173 229.173 921.758 226.031C925.967 223.666 925.568 213.958 933.756 210.522C933.876 210.474 934.768 208.768 934.898 208.308C933.751 208.725 931.208 207.972 929.757 208.308C927.797 208.763 925.069 216.181 921.189 211.076L918.905 166.208C917.06 170.919 914.642 168.317 914.337 168.421V168.431H914.342Z" fill="#8A898E"/>
<path d="M914.344 167.321V168.43C914.648 168.321 917.067 170.924 918.912 166.217L914.344 167.326V167.321Z" fill="#AAA2A9"/>
<path d="M906.919 181.726C905.901 181.774 900.077 198.52 904.635 200.558C907.722 201.132 909.482 181.608 906.919 181.726Z" fill="#727075"/>
<path d="M1179.42 274.786C1181.06 274.104 1190.85 272.848 1190.84 272.018C1190.81 265.339 1172.59 268.25 1179.42 274.786Z" fill="#292427"/>
<path d="M1130.29 268.141C1133.9 260.86 1140.02 261.557 1145.15 258.168C1142.06 253.395 1129.76 263.609 1129.15 265.368C1128.23 268.041 1130.31 267.989 1130.29 268.136V268.141Z" fill="#6D6869"/>
<path d="M1166.85 273.677C1166.6 273.796 1163.8 277.408 1163.43 278.109C1156.83 290.575 1179.67 267.714 1166.85 273.677Z" fill="#736D6C"/>
<path d="M1130.29 275.896C1130.33 274.426 1130.23 272.929 1130.29 271.464C1126.76 273.493 1126.78 274.038 1130.29 275.896Z" fill="#706D6D"/>
<path d="M497.301 202.776C547.473 206.113 599.919 206.876 649.263 206.654L627.555 204.99L497.301 202.776Z" fill="#A4A5A1"/>
<path d="M964.617 199.449C966.457 200.852 970.167 208.507 973.184 210.526C979.273 214.593 990.992 215.134 997.18 218.281C1002.42 220.945 1005.98 227.344 1009.75 229.358C1012.68 230.927 1029.44 233.416 1030.89 236.558C1033.35 241.72 1019.6 243.275 1015.46 243.759C1004.82 245.005 987.451 244.673 976.041 244.868L1032.03 249.3L1033.17 237.668L1036.03 245.977L1037.74 238.777C1041.09 236.156 1038.79 249.209 1038.88 249.854C1039.56 254.551 1042.38 258.462 1042.31 264.254C1042.26 268.411 1038.83 278.408 1038.88 283.641C1039.41 283.366 1041.26 284.276 1041.17 282.532C1040.89 281.095 1044.36 272.469 1043.45 269.79L1046.31 280.313C1047.23 274.914 1049.39 270.132 1053.74 266.463L1045.74 267.572C1046.85 264.595 1047.18 257.007 1048.02 254.831C1047.03 254.85 1046.87 253.94 1045.74 253.722C1039.69 252.57 1046 246.579 1045.74 242.09C1045.06 230.728 1040.42 236.62 1048.02 221.04C1048.64 219.769 1046.19 218.897 1046.88 217.717C1047.57 216.537 1050.6 217.546 1050.88 217.162C1051.96 215.66 1051.19 209.55 1056.02 211.067C1049.6 221.419 1051.43 232.449 1049.16 243.749L1052.59 248.181C1054.55 245.176 1064.42 240 1061.16 235.994C1060.73 235.473 1058.09 238.217 1057.16 235.44C1056.79 234.335 1059.29 232.302 1058.3 231.008C1057.25 229.638 1049.78 229.434 1056.58 220.485C1060.76 218.177 1058.64 222.139 1061.72 223.253C1062.98 218.101 1053.14 213.759 1061.15 210.512L1062.29 212.726L1067.43 204.971C1067.14 204.876 1064.31 201.17 1063.43 200.539L964.602 199.43L964.617 199.449Z" fill="#858388"/>
<path d="M1045.74 253.736C1046.87 253.954 1047.04 254.864 1048.03 254.845C1048.45 253.741 1051.48 249.916 1052.59 248.2L1049.17 243.768C1048.39 247.669 1047.09 250.086 1045.74 253.741V253.736Z" fill="#A9A6A9"/>
<path d="M1045.74 253.736C1047.09 250.082 1048.38 247.664 1049.17 243.763C1051.44 232.463 1049.6 221.433 1056.02 211.081C1051.2 209.564 1051.97 215.669 1050.88 217.177C1050.61 217.561 1047.59 216.518 1046.88 217.731C1046.18 218.945 1048.64 219.784 1048.03 221.054C1040.43 236.634 1045.07 230.738 1045.74 242.104C1046.01 246.593 1039.7 252.584 1045.74 253.736Z" fill="#464345"/>
<path d="M1040.6 220.5C1038.9 221.182 1037.98 225.154 1039.46 226.041C1041.58 227.311 1041.83 221.168 1040.6 220.5Z" fill="#4D4C4C"/>
<path d="M1048.6 213.854L1046.88 214.409L1047.46 216.068L1048.02 215.513L1048.6 213.854Z" fill="#636264"/>
<path d="M53.0859 343.473C75.3369 348.616 80.7127 344.725 120.876 345.711C130.216 345.938 328.122 347.493 329.827 343.142C326.82 342.582 237.841 335.866 214.687 333.505C144.613 326.376 98.7847 339.255 53.0859 343.478V343.473Z" fill="#252123"/>
</g>
<defs>
<linearGradient id="paint0_linear_112_15043" x1="318.214" y1="229.24" x2="21.1641" y2="341.593" gradientUnits="userSpaceOnUse">
<stop stop-color="#807D7C"/>
<stop offset="1" stop-color="#6B6A69"/>
</linearGradient>
<linearGradient id="paint1_linear_112_15043" x1="655.442" y1="129.387" x2="843.763" y2="389.991" gradientUnits="userSpaceOnUse">
<stop stop-color="#B7B8B5"/>
<stop offset="1" stop-color="#909397"/>
</linearGradient>
<clipPath id="clip0_112_15043">
<rect width="1695" height="347" fill="white" transform="translate(-159)"/>
</clipPath>
</defs>
</svg>
