<svg width="637" height="640" viewBox="0 0 637 640" fill="none" xmlns="http://www.w3.org/2000/svg">
<path d="M430.363 26.7182C427.519 32.2358 427.87 24.1333 432.318 28.5822C445.047 27.4637 498.533 64.496 502.479 64.6203C505.649 64.7197 500.149 65.9251 503.657 64.6203C503.606 64.7197 505.899 65.8614 504.909 67.4396C502.942 70.6085 507.603 63.8747 504.359 66.4843C505.524 69.5538 510.873 70.026 511.876 70.8338C516.461 74.4997 521.009 78.3894 525.657 82.018C517.802 85.8207 511.675 80.9742 511.249 93.2023C502.905 77.6065 496.879 92.233 492.456 93.2023C491.654 93.3762 476.958 92.1708 476.169 91.9596C475.467 91.7732 475.668 86.1438 472.41 86.9888C468.839 87.9208 471.42 97.6635 470.531 100.037C466.91 109.705 437.543 102.684 442.968 93.8236C444.158 91.885 464.317 103.852 466.772 95.0663C469.065 86.877 456.536 89.0517 454.87 88.2315C441.589 81.6949 442.617 75.8667 423.548 80.7753C406.571 85.1372 405.958 94.5817 397.864 105.008C394.857 108.885 384.784 114.502 384.082 118.678C383.631 121.387 387.578 132.397 389.72 132.968C391.575 133.466 393.178 130.334 393.479 130.483C398.578 132.981 400.708 144.426 407.261 140.425C413.951 124.506 409.441 110.712 428.559 100.658L420.416 119.92C427.006 129.042 433.997 124.183 442.968 123.648C443.331 125.077 429.173 129.974 428.559 130.483C423.448 134.696 422.759 145.321 418.536 146.638C408.526 149.757 397.288 144.948 393.479 135.454C388.016 138.946 394.206 147.806 394.105 148.502C393.316 154.02 357.058 172.374 356.519 174.599C354.966 180.936 365.703 185.559 360.278 194.482C356.118 201.329 348.739 194.78 343.364 196.346C335.007 198.769 342.675 206.635 342.737 208.151C342.938 212.65 338.728 224.866 344.617 224.928C345.168 224.928 346.108 222.306 348.375 222.442C349.277 222.492 348.538 227.575 350.881 226.171C352.322 225.301 350.681 222.082 352.134 221.2C352.51 220.964 355.855 224.555 360.904 222.442C367.043 219.87 370.514 204.051 377.192 200.074C392.113 191.189 403.853 201.404 414.151 211.88C414.941 218.068 396.523 217.459 411.019 226.171C408.113 220.566 422.809 213.744 421.669 208.151C421.092 205.318 396.949 192.431 401.623 185.783C406.985 178.165 433.082 220.914 434.824 224.928C450.497 219.112 433.007 211.097 443.594 208.773C451.75 223.735 444.985 225.015 463.64 227.413C464.116 227.475 465.206 224.717 467.399 224.928C477.509 225.934 477.559 250.142 448.606 246.054C442.98 245.258 432.293 236.82 427.307 238.597C423.561 239.94 425.452 249.881 418.536 249.782C417.208 249.757 395.722 238.001 395.358 236.733C394.669 234.323 399.906 224.915 393.479 222.442C382.892 218.379 348.864 231.005 341.485 240.462C336.498 246.849 312.18 284.192 311.416 290.169C310.25 299.316 315.926 320.988 313.921 332.421C324.922 347.818 333.203 356.542 353.387 352.925C356.043 352.453 367.582 346.724 368.421 346.712C372.38 346.65 374.874 351.074 378.444 352.925C381.852 354.69 389.582 351.621 391.6 363.488C393.116 372.386 387.778 374.896 387.841 377.158C387.904 379.382 403.276 405.591 404.128 418.167C404.993 430.805 398.052 440.647 399.117 450.477C399.53 454.255 405.958 463.376 406.634 466.632C410.43 484.726 410.656 486.776 416.657 505.155C420.103 515.693 410.794 524.504 434.824 520.689C445.674 518.962 455.847 504.323 460.508 495.214C462.387 491.548 460.483 485.794 461.761 482.787C463.064 479.705 470.731 478.251 471.784 475.331C473.488 470.571 469.316 463.886 470.531 459.176C471.358 455.97 487.871 446.761 490.577 438.05C494.862 424.256 485.565 413.146 488.071 400.769C490.715 387.721 506.939 374.188 513.129 363.488C515.835 358.803 527.574 332.297 523.778 330.557C518.742 329.028 507.616 334.869 503.732 334.285C489.174 332.098 470.33 269.64 463.014 256.617C476.069 266.769 479.301 286.963 486.818 300.111C487.808 301.838 495.601 305.852 496.841 308.81C499.547 315.284 495.664 321.56 501.226 325.586C514.883 319.547 551.191 302.31 545.703 283.956C545.453 283.111 534.641 271.206 533.801 270.908C529.09 269.255 528.163 278.923 525.031 279.606C518.428 281.036 503.619 253.236 509.996 251.024C512.928 250.005 520.922 265.054 525.031 267.179C538.913 274.337 568.506 272.411 578.905 280.849C586.672 287.15 581.523 294.171 583.29 301.354C586.46 314.228 591.91 327.487 600.204 338.013C608.986 338.808 595.067 296.395 615.238 288.305L635.911 285.82C637.677 310.91 637.314 331.762 634.658 356.653C634.57 357.461 634.745 358.331 634.658 359.139C629.721 401.751 617.142 443.766 595.818 480.923C595.267 481.88 594.077 483.371 593.313 484.651C568.857 525.573 529.09 565.836 488.698 591.523C481.468 596.121 441.251 614.401 440.462 616.998C439.535 620.08 440.399 616.911 438.507 617.619H436.077C397.789 631.861 355.016 640.286 313.921 639.988C313.094 639.988 312.242 640 311.416 639.988C270.948 639.366 229.39 629.574 192.392 613.891C191.54 613.531 190.037 613.27 188.634 612.648C163.739 601.613 133.131 582.774 112.208 565.426C90.8216 547.705 69.0716 523.597 53.323 500.806C53.1852 500.607 53.0599 499.787 52.0701 498.321C37.9502 477.406 27.6766 454.54 15.7367 432.458C14.6467 420.068 8.04402 408.958 5.71367 397.041C-3.53255 349.694 -0.400364 298.433 6.96655 251.024C29.1299 247.433 22.853 277.382 30.1448 290.791C39.2782 294.705 27.5889 265.104 29.5183 261.587C45.0665 271.131 34.0663 293.512 46.4322 305.703C54.9392 314.079 66.5784 315.135 75.2483 319.373C77.09 320.267 79.5958 324.567 81.5127 325.586C82.8533 326.294 88.5915 324.89 90.2828 325.586C96.9106 328.308 96.1588 341.629 100.306 344.227C101.321 344.86 114.3 347.122 117.22 349.819C118.159 348.079 104.34 337.665 103.438 333.664C100.719 321.622 112.346 317.72 89.6564 313.781C86.3112 306.734 114.576 272.275 75.2483 304.46C60.715 290.878 69.2846 268.633 86.5242 260.966C117.257 247.309 106.758 271.84 114.714 277.742C124.023 284.652 118.347 263.799 119.725 259.102C120.076 257.884 131.277 248.117 133.507 244.19C135.712 240.288 136.101 231.278 137.266 229.277C138.406 227.314 150.559 220.815 154.806 216.85C156.122 215.62 157.525 208.947 160.444 206.287C160.92 205.853 171.081 200.149 171.72 200.074C173.662 199.85 182.495 208.686 188.634 195.725C178.16 187.225 185.376 176.326 167.335 182.055C179.638 167.677 197.805 174.04 211.185 165.9C212.15 152.939 200.874 142.189 202.415 128.619C200.549 124.17 193.131 131.278 191.766 134.211C192.154 125.487 178.636 109.444 171.093 118.678C170.116 119.87 161.709 143.581 159.817 147.259L146.036 164.657C156.234 138.871 148.454 151.385 131.628 145.395C95.357 132.471 179.926 105.592 176.105 95.0663C174.877 91.6986 168.65 94.01 166.708 93.2023C160.795 90.7417 167.134 73.692 153.553 87.6101C156.861 91.6613 156.936 90.7417 161.07 88.8528C159.63 99.3163 153.44 91.1891 150.421 91.9596C148.228 92.5188 142.816 97.7754 140.398 98.173C135.7 98.9559 125.376 96.8434 119.099 96.9304C111.557 97.0298 87.4138 103.865 107.823 86.9888L104.064 93.2023L105.317 95.6877C122.77 91.8353 159.216 103.666 129.748 78.9113L149.168 73.3192C137.178 64.1729 127.531 85.6218 119.725 73.3192C126.391 68.1247 132.618 63.0172 139.771 58.4068C141.425 57.3381 142.127 56.0209 142.277 55.9214C157.174 46.6385 177.27 37.7408 193.645 31.0676C195.186 30.4338 197.416 29.0668 198.657 28.5822C252.869 7.4688 306.028 1.30503 364.036 9.94176C366.141 10.2524 366.705 11.0105 367.795 11.1845C388.142 14.5646 407.662 20.0697 427.307 26.0968C429.198 25.376 426.029 29.4148 428.559 26.0968C428.672 25.9352 428.785 26.656 429.737 25.4754L430.363 26.7182ZM294.502 32.3103C284.804 43.4075 267.352 30.5456 257.542 39.1451C255.525 40.9097 255.412 46.1414 251.904 48.4653C249.924 49.7825 239.713 49.4719 237.496 55.3001C236.606 66.8447 250.977 58.034 253.783 67.727C258.056 82.4903 237.847 94.8053 245.013 113.707C247.519 120.33 254.309 122.617 260.674 119.299C264.934 117.074 266.45 107.493 268.818 105.008C280.883 92.3448 290.442 92.3697 303.272 86.9888C312.18 83.2483 306.855 78.3024 310.163 72.6978C311.541 70.374 317.78 68.6466 318.933 63.999C322.679 48.8132 309.474 44.7621 336.473 35.417L294.502 32.3103ZM215.57 34.7956C211.21 36.4609 216.235 42.3015 219.329 41.0091C223.15 39.406 221.847 32.4097 215.57 34.7956ZM225.594 34.7956C221.935 36.4981 227.573 46.5764 211.185 44.1158L215.57 49.708C207.176 50.5282 195.612 38.4119 193.645 52.8147L206.174 50.3293C187.281 60.0596 202.703 59.7738 214.318 57.1641C219.104 56.083 255.637 40.3505 255.036 37.9024C252.43 35.4916 226.959 34.1619 225.594 34.7956ZM175.478 55.9214C172.735 55.7972 165.242 61.4887 170.467 63.3776C176.13 65.4156 183.873 56.3191 175.478 55.9214ZM184.249 57.1641C183.472 57.6115 181.292 62.7811 182.996 63.3776L187.381 57.7855C186.942 56.9653 184.775 56.8659 184.249 57.1641ZM191.766 58.4068C190.4 58.5187 185.664 65.6642 188.007 67.1057C193.157 61.3147 214.092 69.2431 213.691 63.999C213.278 58.556 198.08 62.1598 195.524 62.1349C194.961 62.1349 194.848 58.1583 191.766 58.4068ZM174.226 67.1057C172.597 67.7892 171.444 70.5604 172.973 72.0765C175.829 73.8784 205.535 74.45 206.174 72.6978C209.181 64.4215 183.747 70.8586 181.743 70.8338C181.091 70.8338 178.247 65.4405 174.226 67.1057ZM155.432 68.3484C151.611 69.3425 151.574 78.2402 157.938 77.0472C164.754 75.7673 160.056 67.1554 155.432 68.3484ZM190.513 74.5619C186.98 74.5246 181.317 81.931 179.237 82.018C178.222 82.0553 161.459 72.9464 167.335 87.6101C171.782 98.7074 188.27 82.7512 190.513 83.2607C191.716 83.5341 202.941 98.0612 201.162 101.28C199.834 106.648 183.61 107.605 183.622 109.979C190.513 110.886 195.462 118.653 201.789 118.056C203.33 117.907 214.681 111.333 214.944 109.979C215.345 107.978 210.308 102.908 211.185 100.037C213.002 94.0597 222.875 105.629 219.956 92.5809C219.755 91.6738 207.69 79.7812 206.8 79.5326C203.443 78.6006 197.253 80.9369 196.777 80.7753C195.261 80.2658 196.364 74.6364 190.513 74.5619ZM322.065 100.658C321.727 100.696 318.219 104.213 317.053 104.387C316.064 104.536 302.432 97.1665 306.404 108.736C307.018 110.513 315.826 114.278 317.053 114.328C327.54 114.788 345.494 97.9742 322.065 100.658ZM167.961 108.115C166.846 108.226 157.725 111.47 157.312 113.707C159.604 117.037 180.703 110.699 175.478 108.115C172.998 108.289 170.417 107.866 167.961 108.115ZM358.398 131.726C357.772 131.887 357.459 136.821 351.508 134.833C351.52 147.794 364.613 141.829 366.542 153.473C353.738 145.719 358.449 153.287 354.013 163.414C360.14 160.27 370.739 166.372 372.806 158.444C374.322 152.665 362.545 130.657 358.398 131.726ZM348.375 144.153C343.138 144.289 337.074 159.363 339.605 161.55C351.282 164.744 358.223 143.904 348.375 144.153ZM205.547 171.492C191.19 173.058 194.409 191.586 203.668 188.268C205.096 187.759 209.594 181.545 210.559 181.434C215.332 180.862 213.24 186.454 215.57 186.404C222.186 186.28 219.104 170.013 205.547 171.492ZM392.226 203.802C386.287 206.362 389.896 216.714 393.479 213.744C394.105 213.222 395.584 203.964 392.226 203.802ZM106.57 284.577C105.631 284.913 103.588 287.448 105.317 288.305C118.823 282.688 122.294 300.745 124.111 301.975C129.285 305.479 134.835 298.036 129.122 292.033C129.022 291.934 127.581 294.171 126.616 293.276C121.317 288.367 114.726 281.731 106.57 284.577ZM137.892 299.49C136.689 299.788 131.841 305.392 135.386 306.946C154.53 310.525 151.323 296.085 137.892 299.49ZM152.927 301.975C149.995 302.621 151.097 307.629 154.18 306.946C157.111 306.299 156.009 301.291 152.927 301.975ZM136.639 331.8C135.862 331.974 130.713 337.976 129.122 339.256C128.27 339.939 122.056 339.803 120.978 342.362C120.051 344.562 120.84 359.077 119.725 363.488C116.606 375.915 104.641 383.744 105.944 397.041C108.011 418.13 141.037 440.97 147.289 454.205C154.38 469.204 151.072 496.792 153.553 513.854C155.645 528.257 168.312 583.01 181.743 587.795C205.573 596.27 186.416 570.708 187.381 559.834C188.132 551.471 199.972 542.648 189.887 534.98C211.875 541.815 201.613 523.485 202.415 521.31C203.518 518.316 208.78 519.919 209.306 519.446C218.678 511.046 220.895 476.524 224.967 472.845C228.588 469.577 239.651 472.709 241.254 469.117C237.584 454.255 259.221 413.668 257.542 404.497C256.151 396.892 221.071 379.134 215.57 388.964C220.256 377.916 211.574 383.247 209.933 380.886C209.068 379.643 210.359 363.861 204.295 360.382C199.521 357.635 193.645 360.431 189.26 359.139C182.57 357.151 176.005 343.605 171.72 341.741C166.533 339.479 160.933 341.592 157.938 340.498C153.252 338.784 141.35 330.731 136.639 331.8ZM512.502 432.458C505.098 434.483 485.653 479.444 502.479 479.68C512.527 479.817 516.812 442.25 518.14 434.322C517.226 432.421 514.294 431.973 512.502 432.458Z" fill="#2A6B9C" fill-opacity="0.19"/>
<path d="M294.502 32.3101L336.474 35.4168C309.474 44.7619 322.68 48.813 318.934 63.9988C317.781 68.6464 311.542 70.3738 310.163 72.6976C306.856 78.3022 312.181 83.2481 303.273 86.9886C290.443 92.3695 280.884 92.3446 268.819 105.008C266.451 107.493 264.935 117.074 260.675 119.299C254.31 122.617 247.52 120.33 245.014 113.707C237.847 94.8052 258.056 82.4901 253.784 67.7268C250.978 58.0338 236.607 66.8445 237.497 55.2999C239.714 49.4717 249.925 49.7823 251.905 48.4651C255.413 46.1412 255.526 40.9095 257.543 39.1449C267.353 30.5454 284.805 43.4073 294.502 32.3101Z" fill="#D6ECDF" fill-opacity="0.42"/>
<path d="M215.571 34.7954C221.848 32.4094 223.151 39.4058 219.329 41.0089C216.235 42.3013 211.211 36.4606 215.571 34.7954Z" fill="#D6ECDF" fill-opacity="0.34"/>
<path d="M225.593 34.7955C226.959 34.1618 252.429 35.4914 255.035 37.9023C255.637 40.3504 219.103 56.0829 214.317 57.164C202.703 59.7737 187.28 60.0595 206.173 50.3292L193.645 52.8146C195.612 38.4118 207.176 50.5281 215.57 49.7079L211.185 44.1157C227.572 46.5763 221.934 36.498 225.593 34.7955Z" fill="#D6ECDF" fill-opacity="0.43"/>
<path d="M175.479 55.9214C183.873 56.3191 176.13 65.4156 170.467 63.3776C165.243 61.4887 172.735 55.7972 175.479 55.9214Z" fill="#D6ECDF" fill-opacity="0.28"/>
<path d="M184.247 57.164C184.773 56.8657 186.941 56.9652 187.379 57.7853L182.994 63.3775C181.29 62.781 183.47 57.6114 184.247 57.164Z" fill="#D6ECDF" fill-opacity="0.39"/>
<path d="M191.766 58.4067C194.849 58.1582 194.961 62.1348 195.525 62.1348C198.081 62.1596 213.278 58.5558 213.692 63.9988C214.093 69.243 193.157 61.3146 188.008 67.1056C185.665 65.664 190.401 58.5185 191.766 58.4067Z" fill="#D6ECDF" fill-opacity="0.37"/>
<path d="M174.223 67.1054C178.245 65.4402 181.089 70.821 181.741 70.8335C183.745 70.8583 209.179 64.4212 206.172 72.6975C205.533 74.4497 175.827 73.8781 172.97 72.0761C171.442 70.5601 172.595 67.7889 174.223 67.1054Z" fill="#D6ECDF" fill-opacity="0.48"/>
<path d="M155.432 68.3484C160.055 67.1554 164.753 75.7673 157.938 77.0473C151.573 78.2403 151.611 69.3426 155.432 68.3484Z" fill="#D6ECDF" fill-opacity="0.39"/>
<path d="M6.96484 251.024C8.13002 243.506 17.1257 213.892 16.9879 211.879C16.6746 207.393 17.0881 211.444 16.9879 208.151C17.9526 206.697 16.4366 207.642 19.4936 204.423C20.9595 202.882 34.1397 171.517 37.0339 165.9C42.6342 155.051 41.3443 156.579 41.3443 156.579C41.3443 156.579 44.9401 150.714 45.1029 150.366C45.1029 150.366 49.3121 144.277 50.1891 144.152C52.8327 143.792 78.7922 109.593 84.6432 103.765C95.5182 92.9161 107.596 82.7757 119.724 73.3188C127.529 85.6215 137.176 64.1726 149.166 73.3188L129.747 78.9109C159.214 103.665 122.768 91.835 105.316 95.6873L104.063 93.2019L107.821 86.9885C87.412 103.864 111.555 97.0294 119.097 96.93C125.374 96.843 135.698 98.9556 140.396 98.1727C142.814 97.775 148.227 92.5184 150.419 91.9592C153.439 91.1888 159.628 99.316 161.069 88.8525C156.934 90.7414 156.859 91.661 153.551 87.6098C167.133 73.6916 160.793 90.7414 166.707 93.2019C168.649 94.0097 174.875 91.6983 176.103 95.066C179.924 105.592 95.3553 132.471 131.626 145.395C148.452 151.385 156.233 138.871 146.034 164.657L159.816 147.259C161.708 143.581 170.114 119.87 171.092 118.677C178.634 109.444 192.153 125.487 191.764 134.211C193.13 131.278 200.547 124.17 202.414 128.619C200.873 142.189 212.148 152.938 211.184 165.9C197.803 174.039 179.636 167.677 167.333 182.055C185.374 176.326 178.158 187.224 188.632 195.724C182.493 208.686 173.66 199.85 171.718 200.074C171.079 200.148 160.918 205.852 160.442 206.287C157.523 208.946 156.12 215.62 154.804 216.85C150.557 220.814 138.404 227.314 137.264 229.277C136.099 231.278 135.71 240.287 133.505 244.189C131.275 248.116 120.075 257.884 119.724 259.102C118.346 263.799 124.021 284.651 114.712 277.742C106.756 271.839 117.256 247.308 86.5225 260.966C69.2829 268.633 60.7132 290.877 75.2466 304.46C114.574 272.274 86.3095 306.734 89.6547 313.78C112.344 317.72 100.718 321.622 103.436 333.663C104.338 337.665 118.158 348.079 117.218 349.818C114.299 347.122 101.319 344.86 100.304 344.226C96.1571 341.629 96.9088 328.307 90.2811 325.586C88.5897 324.89 82.8516 326.294 81.511 325.586C79.5941 324.567 77.0883 320.267 75.2466 319.372C66.5767 315.135 54.9375 314.078 46.4305 305.703C34.0646 293.512 45.0648 271.131 29.5166 261.587C27.5872 265.104 39.2765 294.705 30.1431 290.79C22.8513 277.382 29.1282 247.433 6.96484 251.024Z" fill="#D6ECDF" fill-opacity="0.29"/>
<path d="M190.514 74.5617C196.365 74.6362 195.262 80.2656 196.778 80.7751C197.254 80.9367 203.443 78.6004 206.801 79.5324C207.691 79.781 219.756 91.6736 219.956 92.5807C222.876 105.629 213.003 94.0595 211.186 100.037C210.309 102.908 215.346 107.978 214.945 109.978C214.682 111.333 203.331 117.907 201.79 118.056C195.463 118.652 190.514 110.886 183.623 109.978C183.61 107.605 199.835 106.648 201.163 101.28C202.942 98.061 191.717 83.5339 190.514 83.2605C188.271 82.751 171.783 98.7072 167.336 87.61C161.46 72.9462 178.223 82.0551 179.238 82.0178C181.318 81.9308 186.981 74.5244 190.514 74.5617ZM209.232 111.842C207.19 112.973 208.605 112.315 209.307 111.842C212.051 108.885 212.089 110.264 209.232 111.842Z" fill="#D6ECDF" fill-opacity="0.51"/>
<path d="M525.655 82.018C591.87 133.615 629.982 201.839 635.908 285.82L615.236 288.305C595.064 296.395 608.984 338.808 600.201 338.013C591.907 327.487 586.457 314.228 583.287 301.354C581.521 294.171 586.67 287.15 578.902 280.849C568.503 272.411 538.911 274.337 525.029 267.179C520.919 265.054 512.926 250.005 509.994 251.024C503.617 253.236 518.426 281.035 525.029 279.606C528.161 278.923 529.088 269.255 533.799 270.908C534.638 271.206 545.451 283.111 545.701 283.956C551.189 302.31 514.88 319.547 501.224 325.586C495.661 321.56 499.545 315.284 496.839 308.81C495.599 305.852 487.806 301.838 486.816 300.111C479.299 286.963 476.066 266.769 463.011 256.617C470.328 269.64 489.171 332.098 503.73 334.285C507.614 334.869 518.739 329.028 523.776 330.557C527.572 332.297 515.833 358.803 513.126 363.488C506.937 374.188 490.712 387.721 488.069 400.769C485.563 413.146 494.859 424.256 490.575 438.05C487.868 446.761 471.355 455.97 470.529 459.176C469.313 463.886 473.485 470.571 471.781 475.331C470.729 478.251 463.061 479.705 461.758 482.787C460.48 485.794 462.385 491.548 460.506 495.214C455.845 504.323 445.671 518.962 434.822 520.689C410.791 524.504 420.1 515.693 416.655 505.155C410.654 486.776 410.428 484.726 406.632 466.632C405.955 463.376 399.528 454.255 399.115 450.477C398.05 440.647 404.991 430.805 404.126 418.167C403.274 405.591 387.901 379.382 387.839 377.158C387.776 374.896 393.113 372.386 391.597 363.488C389.58 351.621 381.85 354.69 378.442 352.925C374.871 351.074 372.378 346.65 368.419 346.712C367.58 346.724 356.041 352.453 353.385 352.925C333.201 356.542 324.919 347.818 313.919 332.421C315.924 320.988 310.248 299.316 311.413 290.169C312.177 284.192 336.496 246.849 341.482 240.462C348.862 231.005 382.89 218.379 393.477 222.442C399.904 224.915 394.667 234.323 395.356 236.733C395.719 238.001 417.206 249.757 418.534 249.782C425.45 249.881 423.558 239.94 427.304 238.597C432.291 236.82 442.978 245.258 448.603 246.054C477.557 250.142 477.507 225.934 467.396 224.928C465.204 224.717 464.114 227.475 463.638 227.413C444.982 225.015 451.748 223.735 443.592 208.773C433.005 211.097 450.495 219.112 434.822 224.928C433.08 220.914 406.983 178.165 401.62 185.783C396.947 192.431 421.09 205.318 421.666 208.151C422.806 213.744 408.11 220.566 411.017 226.171C396.521 217.459 414.938 218.068 414.149 211.88C403.85 201.404 392.111 191.189 377.189 200.074C370.511 204.051 367.041 219.87 360.902 222.442C355.853 224.555 352.508 220.964 352.132 221.2C350.678 222.082 352.32 225.301 350.879 226.171C348.536 227.575 349.275 222.492 348.373 222.442C346.105 222.306 345.166 224.928 344.614 224.928C338.726 224.866 342.936 212.65 342.735 208.151C342.672 206.635 335.005 198.769 343.362 196.346C348.736 194.78 356.116 201.329 360.275 194.482C365.7 185.559 354.963 180.936 356.517 174.599C357.056 172.374 393.314 154.02 394.103 148.502C394.203 147.806 388.014 138.946 393.477 135.454C397.285 144.948 408.524 149.757 418.534 146.638C422.756 145.321 423.445 134.696 428.557 130.483C429.171 129.974 443.329 125.077 442.965 123.648C433.995 124.183 427.004 129.042 420.413 119.92L428.557 100.658C409.438 110.712 413.949 124.506 407.258 140.425C400.706 144.426 398.576 132.981 393.477 130.483C393.176 130.334 391.572 133.466 389.718 132.968C387.576 132.397 383.629 121.387 384.08 118.677C384.782 114.502 394.855 108.885 397.862 105.008C405.955 94.5817 406.569 85.1372 423.546 80.7753C442.614 75.8667 441.587 81.6949 454.868 88.2315C456.534 89.0517 469.063 86.8769 466.77 95.0663C464.314 103.852 444.155 91.885 442.965 93.8236C437.54 102.684 466.908 109.705 470.529 100.037C471.418 97.6635 468.837 87.9208 472.408 86.9888C475.665 86.1438 475.465 91.7732 476.166 91.9596C476.956 92.1708 491.652 93.3762 492.454 93.2023C496.877 92.233 502.903 77.6064 511.247 93.2023C511.673 80.9741 517.8 85.8207 525.655 82.018ZM489.322 206.909C487.818 196.159 486.115 210.637 489.322 206.414C481.88 204.587 470.629 193.96 469.902 193.86C469.15 193.749 492.191 207.008 489.322 206.909Z" fill="#D6ECDF" fill-opacity="0.31"/>
<path d="M322.064 100.658C345.493 97.9739 327.539 114.788 317.053 114.328C315.825 114.278 307.017 110.513 306.403 108.736C302.431 97.1662 316.063 104.535 317.053 104.386C318.218 104.212 321.726 100.695 322.064 100.658Z" fill="#D6ECDF" fill-opacity="0.23"/>
<path d="M167.962 108.114C170.418 107.866 172.999 108.288 175.479 108.114C180.704 110.699 159.605 117.037 157.312 113.706C157.726 111.469 166.847 108.226 167.962 108.114Z" fill="#D6ECDF" fill-opacity="0.39"/>
<path d="M358.399 131.726C362.546 130.657 374.323 152.665 372.807 158.444C370.739 166.372 360.14 160.27 354.014 163.414C358.449 153.286 353.738 145.718 366.542 153.473C364.613 141.829 351.52 147.794 351.508 134.832C357.459 136.821 357.772 131.887 358.399 131.726Z" fill="#D6ECDF" fill-opacity="0.45"/>
<path d="M348.375 144.153C358.223 143.904 351.282 164.744 339.605 161.55C337.074 159.363 343.138 144.289 348.375 144.153Z" fill="#D6ECDF" fill-opacity="0.41"/>
<path d="M205.545 171.492C219.101 170.013 222.183 186.28 215.568 186.404C213.238 186.454 215.33 180.862 210.557 181.434C209.592 181.545 205.094 187.759 203.666 188.268C194.407 191.586 191.187 173.058 205.545 171.492Z" fill="#D6ECDF" fill-opacity="0.42"/>
<path d="M392.226 203.802C395.584 203.963 394.106 213.221 393.479 213.743C389.896 216.713 386.288 206.362 392.226 203.802Z" fill="#D6ECDF" fill-opacity="0.44"/>
<path d="M106.57 284.577C114.726 281.731 121.316 288.367 126.616 293.276C127.58 294.171 129.021 291.934 129.122 292.033C134.835 298.036 129.284 305.479 124.11 301.975C122.293 300.745 118.823 282.688 105.317 288.305C103.588 287.448 105.63 284.913 106.57 284.577Z" fill="#D6ECDF" fill-opacity="0.21"/>
<path d="M137.89 299.489C151.321 296.084 154.528 310.524 135.384 306.946C131.839 305.392 136.687 299.788 137.89 299.489Z" fill="#D6ECDF" fill-opacity="0.49"/>
<path d="M152.924 301.975C156.006 301.291 157.109 306.299 154.177 306.945C151.095 307.629 149.993 302.621 152.924 301.975Z" fill="#D6ECDF" fill-opacity="0.36"/>
<path d="M136.638 331.799C141.349 330.731 153.251 338.783 157.937 340.498C160.931 341.592 166.532 339.479 171.719 341.741C176.003 343.605 182.568 357.15 189.259 359.139C193.644 360.431 199.52 357.635 204.293 360.381C210.357 363.861 209.067 379.643 209.931 380.886C211.573 383.247 220.255 377.916 215.569 388.963C221.069 379.134 256.15 396.892 257.541 404.497C259.219 413.668 237.582 454.255 241.253 469.117C239.649 472.709 228.587 469.577 224.966 472.845C220.894 476.524 218.676 511.046 209.305 519.446C208.779 519.918 203.517 518.315 202.414 521.31C201.612 523.485 211.873 541.815 189.885 534.98C199.971 542.647 188.131 551.47 187.379 559.834C186.415 570.707 205.571 596.27 181.742 587.794C168.311 583.01 155.644 528.257 153.552 513.854C151.071 496.792 154.379 469.204 147.287 454.205C141.036 440.97 108.01 418.129 105.943 397.041C104.64 383.744 116.604 375.915 119.724 363.488C120.839 359.077 120.05 344.562 120.977 342.362C122.055 339.802 128.269 339.939 129.121 339.256C130.712 337.976 135.861 331.973 136.638 331.799Z" fill="#D6ECDF" fill-opacity="0.31"/>
<path d="M512.502 432.458C514.294 431.973 517.225 432.42 518.14 434.322C516.812 442.25 512.527 479.817 502.479 479.68C485.653 479.444 505.098 434.483 512.502 432.458Z" fill="#D9EDDD" fill-opacity="0.36"/>
</svg>
